<?xml version="1.0" encoding="UTF-8" standalone="no"?>
<svg
   id="Calque_1"
   data-name="Calque 1"
   viewBox="0 0 168.43432 155.71124"
   version="1.1"
   sodipodi:docname="cpam.svg"
   width="168.43431"
   height="155.71124"
   inkscape:version="1.1.2 (b8e25be8, 2022-02-05)"
   xmlns:inkscape="http://www.inkscape.org/namespaces/inkscape"
   xmlns:sodipodi="http://sodipodi.sourceforge.net/DTD/sodipodi-0.dtd"
   xmlns="http://www.w3.org/2000/svg"
   xmlns:svg="http://www.w3.org/2000/svg">
  <sodipodi:namedview
     id="namedview94"
     pagecolor="#ffffff"
     bordercolor="#666666"
     borderopacity="1.0"
     inkscape:pageshadow="2"
     inkscape:pageopacity="0.0"
     inkscape:pagecheckerboard="0"
     showgrid="false"
     fit-margin-top="0"
     fit-margin-left="0"
     fit-margin-right="0"
     fit-margin-bottom="0"
     inkscape:zoom="2.1730943"
     inkscape:cx="100.08769"
     inkscape:cy="83.521456"
     inkscape:window-width="3440"
     inkscape:window-height="1387"
     inkscape:window-x="0"
     inkscape:window-y="25"
     inkscape:window-maximized="1"
     inkscape:current-layer="Calque_1" />
  <defs
     id="defs11">
    <style
       id="style9">.cls-1,.cls-2{fill:#114495;}.cls-2{fill-rule:evenodd;}</style>
  </defs>
  <path
     class="cls-1"
     d="M 9.16,89.11 7.9,88 a 3.34,3.34 0 0 0 1,-2 C 8.9,85.22 8.64,84.82 8.15,84.8 7.66,84.78 7.43,85.24 7.1,85.95 L 6.56,87 a 2.43,2.43 0 0 1 -2.34,1.57 2.7,2.7 0 0 1 -2.35,-3 c 0,0 0,-0.05 0,-0.07 a 3.84,3.84 0 0 1 1.21,-2.62 l 1.14,1 a 2.79,2.79 0 0 0 -0.73,1.7 c 0,0.64 0.22,1.07 0.7,1.09 0.48,0.02 0.72,-0.51 1,-1.22 l 0.48,-1 a 2.27,2.27 0 0 1 2.38,-1.58 c 1.38,0.06 2.52,1.27 2.43,3.25 a 4.58,4.58 0 0 1 -1.32,2.99 z"
     id="path49" />
  <path
     class="cls-1"
     d="M 1.44,77.25 0,74.79 1.34,74 2.49,76.54 Z m 1,1.91 L 3.2,74 4.76,74.24 4.27,77.53 6,77.79 6.38,75 7.94,75.24 7.52,78 l 1.9,0.28 0.51,-3.42 1.56,0.23 -0.79,5.28 z"
     id="path51" />
  <path
     class="cls-1"
     d="M 7.77,71.89 C 5.09,71.21 4,69 4.51,67 a 3.52,3.52 0 0 1 1.65,-2.16 l 0.92,1.26 a 2.07,2.07 0 0 0 -1,1.26 c -0.29,1.1 0.47,2.23 2.08,2.64 1.61,0.41 2.82,-0.1 3.12,-1.28 A 2.19,2.19 0 0 0 10.93,67 l 1.39,-0.67 a 3.46,3.46 0 0 1 0.52,2.91 c -0.51,2 -2.36,3.35 -5.07,2.65 z"
     id="path53" />
  <path
     class="cls-1"
     d="m 10.4,63.1 -4.18,-1.58 0.67,-1.73 4.36,1.65 c 1.52,0.58 2.23,0.3 2.56,-0.57 0.33,-0.87 0,-1.58 -1.53,-2.16 L 7.93,57 l 0.64,-1.7 4.17,1.59 c 2.62,1 3.35,2.48 2.59,4.49 -0.76,2.01 -2.33,2.71 -4.93,1.72 z"
     id="path55" />
  <path
     class="cls-1"
     d="m 10.22,51.34 1.38,-2.66 c 0.81,-1.56 2,-2.57 3.78,-1.65 1.78,0.92 1.76,2.54 1,4.11 l -0.52,1 2.66,1.38 -0.87,1.67 z m 4.71,-0.76 c 0.46,-0.87 0.33,-1.54 -0.4,-1.92 -0.73,-0.38 -1.22,0 -1.68,0.85 l -0.44,0.85 2.08,1.08 z m 0.8,0.63 -0.47,-1.71 5.39,-0.19 -1,1.87 z"
     id="path57" />
  <path
     class="cls-1"
     d="m 15.16,42.32 1,-1.53 7,4.51 -1,1.58 z"
     id="path59" />
  <path
     class="cls-1"
     d="m 20.36,37.33 -1.36,1.82 -1.25,-1 3.88,-5.15 1.26,1 -1.39,1.79 5.36,4.09 -1.14,1.49 z"
     id="path61" />
  <path
     class="cls-1"
     d="m 23.66,30.6 3.55,-3.81 1.16,1.07 -2.28,2.44 1.23,1.14 1.93,-2.08 1.16,1.08 -1.94,2.07 1.4,1.28 2.36,-2.53 1.16,1.08 -3.65,3.9 z m 0.22,-2.16 0.19,-2.81 1.56,0.1 -0.47,2.74 z"
     id="path63" />
  <path
     class="cls-1"
     d="m 37.62,26.84 0.07,-1.68 a 3.32,3.32 0 0 0 2.14,-0.57 c 0.62,-0.48 0.74,-1 0.44,-1.35 -0.3,-0.35 -0.8,-0.26 -1.56,0 l -1.14,0.3 A 2.44,2.44 0 0 1 34.86,22.78 2.7,2.7 0 0 1 35.6,19 l 0.08,-0.05 a 3.87,3.87 0 0 1 2.79,-0.78 v 1.52 a 2.72,2.72 0 0 0 -1.76,0.55 c -0.52,0.39 -0.68,0.86 -0.39,1.24 0.29,0.38 0.86,0.21 1.61,0 l 1.1,-0.31 a 2.28,2.28 0 0 1 2.69,0.77 c 0.85,1.1 0.67,2.75 -0.9,4 a 4.48,4.48 0 0 1 -3.2,0.9 z"
     id="path65" />
  <path
     class="cls-1"
     d="m 42.79,18.85 c -1.4,-2.33 -0.89,-4.46 1,-5.62 1.89,-1.16 4.05,-0.6 5.45,1.71 1.4,2.31 0.93,4.52 -1,5.68 -1.93,1.16 -4.08,0.55 -5.45,-1.77 z m 4.82,-2.91 c -0.86,-1.43 -2,-1.9 -3,-1.32 -1,0.58 -1.08,1.8 -0.22,3.23 0.86,1.43 2,2 3,1.38 1,-0.62 1.09,-1.86 0.22,-3.29 z"
     id="path67" />
  <path
     class="cls-1"
     d="M 51.7,13.65 C 50.53,11.15 51.51,8.93 53.42,8.04 A 3.57,3.57 0 0 1 56.16,8 l -0.39,1.52 a 2,2 0 0 0 -1.61,0 c -1,0.49 -1.43,1.78 -0.72,3.29 0.71,1.51 1.86,2.12 3,1.6 A 2.22,2.22 0 0 0 57.59,13 l 1.39,0.65 a 3.37,3.37 0 0 1 -1.92,2.24 c -1.97,0.9 -4.18,0.3 -5.36,-2.24 z"
     id="path69" />
  <path
     class="cls-1"
     d="M 59.05,5.79 60.82,5.14 63.69,13 61.92,13.65 Z"
     id="path71" />
  <path
     class="cls-1"
     d="m 66.54,3.34 2.17,-0.55 4.66,7.37 -1.92,0.51 -2.13,-3.82 C 68.88,6.11 68.41,5.21 67.97,4.43 v 0 c 0,0.9 0.06,1.9 0,2.76 v 4.36 l -1.81,0.5 z m 0.39,4.94 3.87,-1 0.36,1.39 -3.87,1 z"
     id="path73" />
  <path
     class="cls-1"
     d="m 74.38,1.45 1.86,-0.29 1,6.67 3.25,-0.49 0.24,1.56 -5.11,0.77 z"
     id="path75" />
  <path
     class="cls-1"
     d="m 82.48,0.33 5.2,-0.33 0.1,1.57 -3.32,0.22 0.1,1.66 2.83,-0.18 0.1,1.58 L 84.66,5 84.79,6.91 88.24,6.69 88.34,8.26 83,8.63 Z"
     id="path77" />
  <path
     class="cls-1"
     d="m 96.1,24.73 a 1.9,1.9 0 0 0 -1.41,-0.81 l -0.93,-0.13 c -0.66,-0.18 -14.63,0 -17.91,2.16 v 0 c -0.35,-2.22 -1.11,-4.9 -5,-5.72 -2.7,-0.57 -8.51,2 -6.56,7.81 a 3.85,3.85 0 0 0 2,2.19 c 0.5,0.26 1.29,0.14 1.88,1.66 0.17,0.45 0.5,0.4 0.79,0.3 0.29,-0.1 0.27,0 0.62,0.24 a 0.43,0.43 0 0 0 0.5,0.1 0.41,0.41 0 0 0 0.32,0.12 c 0.14,0 0.46,-0.1 0.54,0 1.11,0.9 2.4,-0.5 2.89,-1.38 l 1.79,5.43 c -0.43,-0.37 -4.83,-1.64 -6.94,0.72 -1.84,2 -3.18,4.79 -4.73,9.52 a 3.85,3.85 0 0 1 -2.72,2.47 c -2.39,0.88 -1,2 -0.39,2.11 a 15.62,15.62 0 0 0 5.62,-0.22 c 0.89,-0.44 0.23,-2.49 1.21,-3.76 l 2.2,-2.83 A 9.26,9.26 0 0 1 69.16,49 c -0.73,1.77 -2.91,2.7 -3.56,3.54 -1.15,1.48 1.48,1.6 2.18,1.36 1.76,-0.6 3,-0.57 3.74,-1 1,-0.58 0.29,-2.15 0.62,-2.79 0.9,-1.78 4,-5.67 4.35,-6.29 a 2,2 0 0 0 0.13,-0.25 17,17 0 0 0 5.63,0.77 c 5.11,-0.61 6.25,-4.22 5.73,-7 a 11.87,11.87 0 0 0 -2.59,-5 c -1.34,-2.1 -2.13,-3.23 -2.58,-3.83 1.47,-0.36 9.6,-2.59 9.63,-2.52 0.3,0.66 1,0.81 1.24,1 0.52,0.29 0.83,-0.16 0.62,-0.29 a 1.29,1.29 0 0 1 -0.51,-0.55 10.55,10.55 0 0 1 1.77,0.13 c 0.6,-0.01 0.93,-1.28 0.54,-1.55 z"
     id="path79" />
  <path
     class="cls-2"
     d="m 168.4,73.79 c -1.3,-7 -7.84,-11.35 -11.21,-12.78 a 23,23 0 0 0 -3.69,-1.28 l -1.12,-0.37 v 0 c 0.24,-1.52 2,-1.64 3.06,-3.81 3,-6.16 -3.16,-10.5 -7.72,-9.5 -2.16,0.47 -3.65,1.24 -4,2.89 -0.17,0.89 -0.86,0.92 -2,2.1 -0.36,0.38 0.44,1 0.57,1.26 a 7.53,7.53 0 0 0 -0.28,0.77 c -0.08,0.37 0,0.31 0,0.36 a 1.79,1.79 0 0 0 -0.22,0.87 2.37,2.37 0 0 0 0,2.11 v 0 a 6.69,6.69 0 0 1 0.93,2.32 c 0,0.19 0,0.29 -0.84,0 -0.21,-0.06 -8.46,-2.49 -9.38,-3.11 -0.92,-0.62 -9.2,-9.56 -10.1,-11.3 -0.49,-1 -1,-1.59 -1.27,-1.57 -1.93,0.12 1.4,3.6 -0.47,2.41 -0.48,-0.31 -1.93,-1.32 -2,-1.4 -0.36,-0.3 -0.27,-0.15 -0.54,-0.57 a 2.62,2.62 0 0 0 -0.62,-0.82 c -0.22,-0.15 -0.34,-0.19 -0.49,-0.16 -0.3,0.08 -0.25,0.3 -0.32,0.32 h -0.33 c -0.48,0.12 -0.12,1.35 0,1.92 a 22.37,22.37 0 0 0 1.8,3.8 c 2.09,1.44 4.15,2.65 4.22,2.73 2.25,2.61 4.89,5.88 7.25,8.36 1.87,2 10.46,7 10.74,7.13 0.57,0.34 1.46,2.17 0.18,15.27 -0.49,4.93 -4,15.41 -2.33,20.83 a 65.64,65.64 0 0 1 3.57,15.43 c 0.28,2.15 -1.39,3.45 -3.78,5.18 -0.93,0.68 -3.55,2.29 -3.82,2.54 -0.44,0.4 0,1 0.54,1.27 a 14.7,14.7 0 0 0 2.2,0.94 6.35,6.35 0 0 0 4.07,-0.79 c 1.74,-1 1.89,-1.14 2.92,-1.76 1.18,-0.71 2.6,-0.94 3,-2.14 0.49,-1.6 -0.86,-3.89 -0.73,-4.93 1,-7.5 2.28,-11.22 0.39,-15.81 -0.38,-0.92 2.73,-10.94 3,-9.59 0.48,2.64 0.67,10.49 0.75,16.33 0,2.55 2.1,11.61 2.76,14.86 1,5 -7.45,9 -5.6,10.5 a 6.12,6.12 0 0 0 2.53,1 6,6 0 0 0 3.06,-0.37 6.3,6.3 0 0 0 1.73,-1.52 c 1.8,-2.24 1.24,-1.62 2.67,-3.22 1.23,-1.38 0.34,-3.76 0.19,-5 -0.32,-2.55 0,-3.22 -0.07,-7.8 a 42.35,42.35 0 0 1 0.61,-8.78 c 1.33,-8.78 2.15,-13.55 2.56,-17.28 v -0.21 c 0,0 0.64,0.23 0.92,-0.23 a 5.37,5.37 0 0 0 0.51,-2 c 0.11,-0.49 0.31,0.14 0.31,0.14 a 8,8 0 0 1 0.43,1.59 9.09,9.09 0 0 1 -0.7,2.16 c -0.35,1 0.52,1.14 0.74,1.22 a 9.69,9.69 0 0 0 3.18,-2.54 6.14,6.14 0 0 0 0.36,-2.29 35.22,35.22 0 0 0 -0.72,-5 c 0.79,-2.58 2.93,-8.95 2.6,-10.68 z m -6,10.12 c -0.28,1.25 -0.36,0.06 -1.54,4.69 l 0.13,-0.66 v -2 c 0,-5.75 -4.39,-18 -1.74,-15.39 0,0 3.21,2.23 3.83,3.93 0.53,1.31 0.34,5 -0.67,9.41 z"
     id="path81" />
  <path
     class="cls-1"
     d="m 55.42,97.59 c -1,-0.86 -4.45,-5.59 -6.7,-7.45 a 31.73,31.73 0 0 1 -3.11,-4 c -4.09,-5.45 -5,-5.76 -7.84,-6.25 -0.58,-0.38 -0.39,-0.83 -0.33,-0.85 A 3.57,3.57 0 0 0 40,74.68 2.91,2.91 0 0 0 39.88,74.29 c -0.17,-0.71 0.31,-1 0.3,-1.68 A 7.55,7.55 0 0 0 39.64,69.92 2,2 0 0 0 39.32,68 c -2,-2.52 -7,-2.64 -9.57,-0.85 -2.09,1.44 -0.86,2.44 -1.51,4.48 a 3.14,3.14 0 0 0 0.85,3.12 c 0.1,0.68 2.15,2 1.75,3.44 C 30.44,79.63 28,80 28.06,80 a 2.76,2.76 0 0 0 -0.74,0.28 c -3.82,2.18 -7.53,5.35 -8,8.84 0.21,2.81 4.56,6.86 7.36,9 0.41,4.79 3.45,12.12 3.58,12.41 0.42,0.87 -0.86,-0.66 -3.92,-1.7 -1.48,-0.5 -3.44,-2.53 -3.86,-0.15 -0.18,1 0.25,2.72 -0.69,4.86 -0.72,1.63 0.12,4.24 1.92,4.18 1.3,0 2.07,-4 2.07,-4 0,0 6.28,3.13 9.28,2.09 1.76,-0.61 2.15,-7.62 0.43,-13.87 -0.61,-2.19 1.13,3.56 5.33,8.64 0.92,1.12 0.11,2 0.72,6.17 a 11.06,11.06 0 0 1 0.2,2.69 c -0.11,2 -2,4.41 2.37,5.54 4.37,1.13 4.13,2.21 6.94,0.32 1.27,-0.85 -3.87,-1.37 -4.88,-4.41 a 5,5 0 0 1 -0.11,-0.66 c -0.12,-2.4 1,-8 0.64,-9.88 -1.6,-9.5 -5.6,-13.89 -6.1,-16.11 -0.05,-6.63 -0.48,-8.71 0.15,-7.22 a 34.56,34.56 0 0 0 2.88,4.39 v 0 a 5.88,5.88 0 0 0 0.52,0.6 7.2,7.2 0 0 0 1.2,1.14 c 2.77,2.42 7.18,5.31 7.77,5.94 0,0 0.32,2.92 1.53,2.7 1.21,-0.22 6.37,-2.5 6.27,-3.09 -0.2,-0.98 -5.31,-0.91 -5.5,-1.11 z M 26.65,93.91 c -0.81,-1.54 -3,-4.4 -2.84,-4.87 1.22,-2 2.53,-2.58 2.92,-2.45 0.39,0.13 -0.08,7.32 -0.08,7.32 z"
     id="path83" />
  <path
     class="cls-1"
     d="m 143.1,151.33 c -0.23,-0.12 -3.34,-1.27 -6.09,-5.67 -1.23,-2 -10.47,-19.09 -11.73,-22.43 -2.5,-6.61 -22,-18.5 -22.83,-19.19 -0.58,-0.47 -0.5,-1.62 -0.28,-2.37 1.64,-5.56 1,-10.54 1.31,-11.29 0.8,-1.89 2,-4.64 1.11,-6.43 l -2,-3.18 c 0,0 10.32,3.73 12.72,3.23 2.06,-0.44 12.44,-7.57 13,-7.88 1.44,-0.73 4.89,0.34 8.37,-3.45 1.32,-1.43 0.36,-1.93 0.13,-1.67 a 0.89,0.89 0 0 0 -1.2,-0.32 c -0.83,0.47 -3.7,1.3 -3.17,0.91 2.08,-1.56 0.64,-2 0.64,-2 -0.91,0.75 -5,1.8 -5.86,2.46 a 24.93,24.93 0 0 1 -2,1.7 44.63,44.63 0 0 1 -11.12,4.46 C 113.23,78.4 105,73.03 100.23,72.3 a 9.4,9.4 0 0 0 -4.88,0.19 c -1.7,0.48 -1.56,-2 -0.3,-2.57 0.66,-0.31 1.76,-0.51 2.17,-1.35 A 2.61,2.61 0 0 0 97.14,66.5 0.72,0.72 0 0 0 97.07,65.91 c -0.12,-0.29 -0.1,-0.13 -0.06,-0.42 0.04,-0.29 -0.13,-0.38 -0.2,-0.62 a 0.8,0.8 0 0 1 0.07,-0.55 c 1,-0.84 0.57,-1.23 0.44,-1.35 C 97,62.69 95.53,62 95.39,61 a 11.84,11.84 0 0 0 -1,-3.19 c -0.1,-0.3 -0.27,-2.16 -1.1,-2.91 -1,-0.91 -3.11,-2 -7.65,-0.8 -1.46,0.4 -1.2,1.1 -4.85,1.78 -4.37,0.81 -6.79,7.31 -6.39,10 0.31,2.18 2.19,1.12 2.11,2.09 -0.13,1.51 -0.28,4 2.92,4.93 0.69,0.2 4.88,-0.47 6.47,-0.19 0,0 1.29,0.11 0.65,1.4 -0.32,0.65 -4.52,2.31 -5.56,2.75 C 78.16,78 71.16,89.57 69,90.66 a 24.11,24.11 0 0 0 -3.56,2.13 c -2.91,1.77 -5.73,4 -7.26,4 -2.08,-0.13 -3.77,0.87 -5.16,4 -0.41,0.91 -0.18,1.39 0.58,1.58 a 1.77,1.77 0 0 0 1.28,0.66 c 0.63,0.58 1.33,0.21 1.85,-0.08 1.64,-0.88 2,-1.58 2.65,-1.84 1.59,-0.52 11,-4.15 13.09,-5.77 C 75.62,93.6 82,87 83.45,87 84.9,87 88,89.77 87,95.31 c -0.35,1.89 -2.71,5.3 -4,7.29 -2.59,3.94 -0.58,7.38 -1.1,8.21 -2.69,4.39 -6,10.26 -11.57,15.28 -2.17,1.41 -6.75,1.73 -9.17,2.44 -5.56,1.63 -11.49,5.62 -15.71,8 -1.4,0.78 -2.74,-0.9 -4.5,-1.1 -1.76,-0.2 -1.95,2.46 -2.85,4.87 -0.28,0.74 -0.4,1.09 -1.75,4.06 -0.52,1.16 -1.91,4.73 -0.51,6.22 1.27,1.78 4.32,-3.8 6.67,-6.52 1.24,-1.44 2,-1.91 4.71,-2.53 1.72,-0.4 15.35,-4.1 24.35,-6.07 a 2.87,2.87 0 0 0 0.71,-0.16 c 11.7,-3 23.81,-18.3 24,-18.23 l 19.81,9.72 c 2,1.08 2,5 4.38,9.35 1.43,2.66 3.51,5 12,13.31 1.09,1.07 0.2,2.84 0.69,4.49 0.49,1.65 1.37,1.8 3,1.67 1.63,-0.13 2.81,-0.36 4.29,-0.46 1.89,-0.11 1.38,0.09 3.58,0.42 1.08,0.16 3.53,0.51 5.26,-1.21 3.11,-3.07 -3.29,-1.51 -6.19,-3.03 z"
     id="path85" />
  <path
     class="cls-1"
     d="m 121.55,142.72 a 1.2,1.2 0 0 0 -1.62,-0.54 v 0 A 61,61 0 0 1 62,140.69 a 1.21,1.21 0 0 0 -1.2,2.1 63.47,63.47 0 0 0 60.28,1.56 1.21,1.21 0 0 0 0.51,-1.62 z"
     id="path87" />
  <path
     class="cls-1"
     d="M 35.7,63.29 A 1.25,1.25 0 0 1 35.2,63.18 1.19,1.19 0 0 1 34.59,61.6 v 0 A 63.2,63.2 0 0 1 60.41,33 1.2100103,1.2100103 0 1 1 61.63,35.09 60.9,60.9 0 0 0 36.8,62.58 1.22,1.22 0 0 1 35.7,63.29 Z"
     id="path89" />
  <path
     class="cls-1"
     d="m 139,47.79 a 1.21,1.21 0 0 1 -0.91,-0.41 60.93,60.93 0 0 0 -37.13,-20 1.2112906,1.2112906 0 1 1 0.33,-2.4 63.42,63.42 0 0 1 38.62,20.81 1.21,1.21 0 0 1 -0.91,2 z"
     id="path91" />
</svg>
