<svg width="200" height="193" viewBox="0 0 200 193" fill="none" xmlns="http://www.w3.org/2000/svg">
<g clip-path="url(#clip0_1479_6293)">
<path d="M148.674 147.927C147.68 147.188 146.66 146.563 145.795 145.77C142.435 142.689 139.546 139.175 137.384 135.187C135.486 131.685 133.806 128.061 132.562 124.227C130.914 119.157 128.912 114.206 127.097 109.189C126.162 106.603 125.262 103.998 124.429 101.377C124.053 100.193 123.785 98.9587 123.624 97.7273C123.349 95.6182 124.47 94.0616 126.014 92.8681C128.404 91.021 130.936 89.3602 133.345 87.5321C136.253 85.325 139.092 83.0296 141.962 80.7752C143.244 79.768 144.538 78.7766 145.83 77.7788C149.464 74.9687 153.117 72.1807 156.726 69.3359C158.551 67.8961 160.786 67.3941 162.835 66.4785C166.413 64.8777 170.205 63.9589 174.019 63.1442C175.118 62.9106 176.283 62.9422 177.419 62.9232C178 62.9138 178.578 63.0779 178.676 63.8168C178.761 64.4767 178.42 64.8587 177.855 65.1587C175.14 66.6111 172.892 68.6444 170.994 71.0283C168.2 74.5425 165.917 78.3598 164.559 82.6791C163.805 85.0788 162.902 87.4342 162.248 89.8591C161.743 91.7283 161.531 93.6732 161.175 95.5835C161.07 96.1328 160.919 96.6728 160.774 97.2127C160.692 97.5158 160.458 97.8252 160.496 98.1062C160.774 100.237 159.789 102.173 159.58 104.232C159.463 105.397 159.002 106.549 158.586 107.664C156.761 112.551 154.762 117.379 153.092 122.317C152.056 125.377 151.055 128.462 150.383 131.663C149.893 133.993 149.716 136.273 149.764 138.6C149.786 139.645 150.032 140.715 150.342 141.723C151.046 144.009 150.531 146.405 148.674 147.93V147.927Z" fill="#007CBF"/>
<path d="M129.002 167.383C128.623 167.383 128.241 167.358 127.862 167.386C126.419 167.506 125.402 166.96 124.462 165.804C120.695 161.172 115.908 157.854 110.455 155.489C108.1 154.466 105.725 153.443 103.278 152.688C101.002 151.987 98.6845 151.321 96.2406 151.287C95.1924 151.271 94.1504 150.939 93.1022 150.785C92.477 150.693 91.8455 150.62 91.2172 150.62C85.3855 150.608 79.5537 150.595 73.7252 150.63C72.8569 150.636 71.9886 150.882 71.1203 151.015C70.5614 151.103 70.0057 151.245 69.4437 151.268C66.981 151.362 64.5529 151.517 62.0933 151.95C59.1948 152.461 56.4194 153.244 53.7609 154.397C52.2706 155.044 51.1465 154.447 50.0351 153.803C49.2679 153.358 49.4005 152.423 49.852 151.773C50.4235 150.949 51.1024 150.172 51.8443 149.499C57.4582 144.422 63.7067 140.163 69.791 135.692C71.7202 134.274 73.5578 132.737 75.4712 131.3C78.2371 129.223 81.0472 127.208 83.8131 125.127C85.6254 123.767 87.3999 122.355 89.168 120.938C90.4436 119.915 91.8329 119.188 93.5032 119.472C94.4125 119.627 95.3755 119.87 96.1459 120.347C97.9614 121.471 99.6727 122.766 101.435 123.978C104.905 126.365 108.375 128.755 111.86 131.123C115.349 133.495 118.794 135.945 122.374 138.168C127.051 141.069 130.224 145.338 133.375 149.654C134.897 151.741 136.387 153.85 137.893 155.947C139.586 158.302 140.176 160.734 138.938 163.572C138.294 165.043 137.227 165.77 135.901 166.126C133.653 166.733 131.345 167.115 129.059 167.591L129.005 167.377L129.002 167.383Z" fill="#707173"/>
<path d="M38.801 149.774C38.6242 148.6 38.7158 147.618 39.202 146.572C39.7198 145.461 40.0008 144.208 40.1997 142.986C40.8439 138.998 41.5669 134.982 40.9765 130.94C40.165 125.383 38.3211 120.151 35.211 115.434C33.4839 112.813 32.1578 110.029 31.1159 107.073C29.5119 102.53 27.9301 97.9705 26.0988 93.5154C24.6274 89.9317 23.0076 86.3734 21.0627 83.0328C19.5755 80.4816 17.738 78.082 14.8237 76.7433C13.5354 76.1497 12.8155 74.7225 12.3167 73.3554C11.9283 72.2818 12.9071 70.6116 14.1543 70.4916C16.5318 70.2611 18.922 70.0085 21.2679 70.9399C22.5909 71.4641 24.037 71.6693 25.401 72.0987C28.0122 72.9228 30.4844 74.0216 32.7325 75.635C36.5371 78.363 40.3292 81.1226 44.2538 83.6706C48.5921 86.487 53.0851 89.0603 57.4834 91.7851C58.4874 92.4103 59.422 93.1744 60.2966 93.9764C61.4049 94.9899 61.9606 96.2402 61.9764 97.8253C62.0016 100.471 61.2281 102.94 60.5934 105.447C60.1956 107.02 59.7441 108.579 59.2736 110.133C58.5885 112.4 57.8497 114.651 57.1677 116.918C56.533 119.027 55.9268 121.146 55.33 123.268C54.7522 125.32 54.2218 127.385 53.644 129.437C53.1198 131.303 52.4347 133.135 52.0589 135.026C51.5411 137.628 49.8046 139.459 48.3111 141.432C46.3882 143.977 44.3075 146.405 42.3184 148.903C41.4469 149.998 41.1754 150.099 38.801 149.771V149.774Z" fill="#13235B"/>
<path d="M86.2942 1.54319C86.4489 2.43358 86.6162 2.96087 86.6162 3.48816C86.6099 7.34967 86.7235 11.2207 86.4773 15.0695C86.332 17.3713 85.6279 19.6415 85.1322 21.9148C84.7849 23.5124 84.3744 25.0975 83.9734 26.6825C83.6798 27.8381 83.4967 29.0537 83.0073 30.124C81.2233 34.0234 80.2761 38.1975 78.8837 42.2201C77.4818 46.2679 76.4209 50.3914 75.5905 54.5845C75.218 56.4726 74.3718 58.1587 73.1719 59.6458C72.8341 60.0657 72.2879 60.3404 71.7985 60.6151C69.5757 61.8465 67.2423 62.6895 64.6501 62.6895C53.937 62.6832 43.2271 62.6832 32.514 62.7053C30.9479 62.7085 29.4197 62.7401 27.8568 63.2895C26.6223 63.722 25.1699 63.6431 23.7806 63.0968C22.824 62.7211 21.6841 62.7716 20.6232 62.6895C18.8961 62.5569 17.5163 61.5529 16.9512 59.7942C18.6214 59.469 20.2917 59.2259 21.9146 58.8059C25.9908 57.7577 30.0134 56.5989 33.7202 54.4677C36.7607 52.7185 39.4666 50.5619 41.8 48.0234C43.5302 46.1384 44.8058 43.8367 46.2835 41.718C46.7476 41.055 47.1581 40.3477 47.679 39.7352C49.785 37.2756 52.3709 35.3464 54.9253 33.3951C58.4268 30.7176 61.8811 27.9707 65.4837 25.4321C68.3538 23.4114 70.7407 20.9013 73.1372 18.4101C74.5959 16.8945 75.7768 15.1579 76.3483 12.9635C77.4945 8.55895 80.4813 5.44575 84.2102 2.98613C84.8165 2.58514 85.4069 2.15889 86.2942 1.54004V1.54319Z" fill="#F29400"/>
<path d="M94.1609 0.30882C94.0062 1.19921 93.8389 1.7265 93.8389 2.25378C93.8452 6.11529 93.7315 9.98628 93.9778 13.8352C94.1231 16.1369 94.8272 18.4071 95.3229 20.6804C95.6702 22.2781 96.0807 23.8631 96.4817 25.4481C96.7753 26.6037 96.9584 27.8193 97.4478 28.8897C99.2317 32.7891 100.179 36.9632 101.571 40.9857C102.973 45.0335 104.034 49.1571 104.865 53.3501C105.237 55.2382 106.083 56.9243 107.283 58.4114C107.621 58.8314 108.167 59.1061 108.657 59.3808C110.879 60.6121 113.213 61.4552 115.805 61.4552C126.518 61.4489 137.228 61.4489 147.941 61.471C149.507 61.4741 151.035 61.5057 152.598 62.0551C153.833 62.4876 155.285 62.4087 156.674 61.8625C157.631 61.4867 158.771 61.5373 159.832 61.4552C161.559 61.3226 162.939 60.3185 163.504 58.5598C161.834 58.2346 160.163 57.9915 158.54 57.5716C154.464 56.5233 150.442 55.3645 146.735 53.2333C143.694 51.4841 140.988 49.3276 138.655 46.789C136.925 44.904 135.649 42.6023 134.172 40.4837C133.707 39.8206 133.297 39.1134 132.776 38.5008C130.67 36.0412 128.084 34.112 125.53 32.1607C122.028 29.4833 118.574 26.7363 114.971 24.1978C112.101 22.177 109.714 19.6669 107.318 17.1757C105.859 15.6601 104.678 13.9236 104.107 11.7292C102.961 7.32458 99.9737 4.21138 96.2448 1.75176C95.6386 1.35077 95.0482 0.924516 94.1609 0.305664V0.30882Z" fill="#FABC0F"/>
<path d="M184.941 116.41C178.995 116.053 173.618 114.758 169.356 110.606C166.811 108.128 165.077 105.242 165.106 101.494C165.115 100.206 165.564 99.1135 166.164 98.1221C167.745 95.4983 170.028 93.8122 173.034 92.8745C176.899 91.6715 180.798 91.621 184.656 92.2809C189.345 93.0828 193.425 95.1573 196.471 99.0567C197.873 100.85 198.937 102.719 199.206 104.942C199.638 108.513 197.734 111.071 195.209 113.252C192.193 115.857 188.426 116.025 184.937 116.407L184.941 116.41Z" fill="#007CBF"/>
<path d="M11.1093 140.984C10.1431 140.94 9.12958 140.911 8.11921 140.845C4.58292 140.605 2.02228 138.812 0.797202 135.569C-0.0331958 133.371 0.0994061 130.937 0.945591 128.686C2.42326 124.748 5.24913 121.878 8.55493 119.422C11.0809 117.546 13.9573 116.372 16.9095 115.374C17.3799 115.216 17.9072 115.238 18.4061 115.156C19.5238 114.973 20.6352 114.762 21.7561 114.597C22.116 114.544 22.4949 114.56 22.8548 114.616C23.7263 114.752 24.5819 115.002 25.4565 115.084C27.6951 115.292 29.5138 116.347 31.0231 117.897C32.0303 118.933 32.5986 120.256 32.7501 121.749C33.088 125.02 32.1187 127.9 30.3221 130.587C27.3636 135.01 23.2684 137.962 18.3776 139.891C17.4557 140.255 16.4895 140.596 15.517 140.725C14.0773 140.914 12.6122 140.908 11.1125 140.987L11.1093 140.984Z" fill="#13235B"/>
<path d="M41.7593 36.5969C42.034 38.6461 41.6299 40.4932 40.0796 41.9677C39.8081 42.2266 39.5428 42.5139 39.2207 42.6907C36.1139 44.3957 32.9028 45.0304 29.376 44.0168C26.7616 43.2654 24.1126 42.6623 21.7666 41.2288C19.2375 39.6849 16.8253 37.9957 15.1329 35.4824C14.8487 35.0624 14.5393 34.6614 14.2173 34.2699C12.2312 31.8356 11.4356 29.1044 11.3598 25.9186C11.2524 21.394 14.8203 18.8586 18.385 18.4197C23.4306 17.7977 28.1414 19.2501 32.2745 21.8645C35.7665 24.0746 38.7661 27.1121 40.6669 30.9262C41.5352 32.6691 42.0309 34.5888 41.7593 36.5969Z" fill="#F29400"/>
<path d="M138.696 35.3623C138.421 37.4115 138.825 39.2586 140.375 40.7331C140.647 40.992 140.912 41.2793 141.234 41.4561C144.341 43.1611 147.552 43.7957 151.079 42.7822C153.693 42.0308 156.342 41.4277 158.688 39.9942C161.218 38.4502 163.63 36.761 165.322 34.2477C165.606 33.8278 165.916 33.4268 166.238 33.0353C168.224 30.6009 169.02 27.8698 169.095 24.684C169.203 20.1594 165.635 17.624 162.07 17.1851C157.025 16.5631 152.314 18.0155 148.181 20.6298C144.689 22.84 141.689 25.8775 139.788 29.6916C138.92 31.4345 138.424 33.3542 138.696 35.3623Z" fill="#FABC0F"/>
<path d="M101.478 173.379C101.478 174.834 101.642 176.309 101.447 177.736C100.963 181.263 99.6121 184.48 97.4998 187.36C96.1863 189.15 94.756 190.82 92.5553 191.562C89.8746 192.469 87.2603 192.513 84.9175 190.659C82.9347 189.09 81.6496 187.101 80.9202 184.626C80.5193 183.262 80.3582 181.932 80.2382 180.556C80.1719 179.807 79.9793 179.072 79.8657 178.327C79.7994 177.897 79.7015 177.452 79.7488 177.032C79.9098 175.602 80.0993 174.175 80.3298 172.751C80.8981 169.227 82.019 165.918 84.3145 163.117C85.7511 161.365 87.153 159.521 89.4074 158.747C92.0501 157.841 95.4475 157.958 97.4587 160.288C98.9869 162.06 100.051 164.046 100.847 166.29C101.683 168.659 101.399 171.014 101.478 173.379Z" fill="#707173"/>
</g>
<defs>
<clipPath id="clip0_1479_6293">
<rect width="200" height="193" fill="white"/>
</clipPath>
</defs>
</svg>
