<svg width="709" height="183" viewBox="0 0 709 183" fill="none" xmlns="http://www.w3.org/2000/svg">
<rect x="0.51913" y="0.51913" width="707.962" height="181.962" rx="90.9809" fill="white" stroke="black" stroke-width="1.03826"/>
<path d="M105.129 119.754H119.108L100.096 63.8367H83.8006L64.7887 119.754H78.768L81.5639 110.967H102.333L105.129 119.754ZM85.3982 98.9846L91.9485 78.455L98.4988 98.9846H85.3982Z" fill="#131220"/>
<path d="M197.626 75.644C205.201 75.644 210.583 71.6571 210.583 64.9292C210.583 57.5534 204.653 55.7094 199.37 54.1147C193.938 52.4701 193.091 51.3736 193.091 49.7789C193.091 48.3835 194.337 47.1376 196.829 47.1376C200.018 47.1376 201.663 48.6825 202.859 51.1743L209.587 47.2372C207.045 42.1041 202.56 39.3631 196.829 39.3631C190.798 39.3631 185.117 43.2503 185.117 49.9782C185.117 56.6563 190.2 59.1481 195.383 60.5934C200.616 62.0386 202.61 62.8859 202.61 65.0288C202.61 66.3744 201.663 67.8695 197.875 67.8695C193.938 67.8695 191.795 65.9259 190.549 63.0354L183.672 67.0223C185.615 72.1554 190.3 75.644 197.626 75.644ZM228.467 75.644C236.142 75.644 241.923 71.1587 241.923 63.6833V40.0608H233.949V62.9855C233.949 65.6269 232.703 67.8695 228.467 67.8695C224.231 67.8695 222.985 65.6269 222.985 62.9855V40.0608H215.011V63.6833C215.011 71.1587 220.792 75.644 228.467 75.644ZM260.576 75.644C268.151 75.644 273.533 71.6571 273.533 64.9292C273.533 57.5534 267.603 55.7094 262.32 54.1147C256.888 52.4701 256.041 51.3736 256.041 49.7789C256.041 48.3835 257.287 47.1376 259.778 47.1376C262.968 47.1376 264.613 48.6825 265.809 51.1743L272.537 47.2372C269.995 42.1041 265.51 39.3631 259.778 39.3631C253.748 39.3631 248.067 43.2503 248.067 49.9782C248.067 56.6563 253.15 59.1481 258.333 60.5934C263.566 62.0386 265.559 62.8859 265.559 65.0288C265.559 66.3744 264.613 67.8695 260.825 67.8695C256.888 67.8695 254.745 65.9259 253.499 63.0354L246.622 67.0223C248.565 72.1554 253.25 75.644 260.576 75.644ZM300.368 40.0608H274.453V47.7356H283.424V74.9463H291.398V47.7356H300.368V40.0608ZM324.246 74.9463H332.967L321.106 40.0608H310.94L299.079 74.9463H307.8L309.544 69.4643H322.502L324.246 74.9463ZM311.936 61.9888L316.023 49.1808L320.11 61.9888H311.936ZM336.634 40.0608V74.9463H344.608V40.0608H336.634ZM370.73 40.0608V58.9986L357.274 40.0608H351.294V74.9463H359.268V56.0084L372.724 74.9463H378.704V40.0608H370.73ZM407.55 74.9463H416.271L404.41 40.0608H394.244L382.383 74.9463H391.104L392.848 69.4643H405.806L407.55 74.9463ZM395.24 61.9888L399.327 49.1808L403.414 61.9888H395.24ZM441.567 56.8557C443.461 55.2111 444.607 52.9186 444.607 50.0281C444.607 43.9979 439.673 40.0608 433.593 40.0608H419.938V74.9463H434.59C440.82 74.9463 445.853 70.9095 445.853 64.7298C445.853 61.1914 444.159 58.5003 441.567 56.8557ZM433.593 47.5362C435.437 47.5362 436.633 48.832 436.633 50.6261C436.633 52.4202 435.387 53.716 433.593 53.716H427.912V47.5362H433.593ZM434.59 67.4708H427.912V60.7927H434.59C436.584 60.7927 437.879 62.1882 437.879 64.1318C437.879 66.0754 436.584 67.4708 434.59 67.4708ZM458.487 67.2715V40.0608H450.513V74.9463H470.946V67.2715H458.487ZM483.124 67.2715V61.0918H495.583V53.5166H483.124V47.7356H496.829V40.0608H475.15V74.9463H497.078V67.2715H483.124ZM199.37 89.0608H185.416V123.946H199.37C208.989 123.946 216.315 116.371 216.315 106.504C216.315 96.6359 208.989 89.0608 199.37 89.0608ZM199.37 116.271H193.39V96.7356H199.37C204.852 96.7356 208.64 100.523 208.64 106.504C208.64 112.484 204.852 116.271 199.37 116.271ZM221.49 89.0608V123.946H229.464V89.0608H221.49ZM270.687 104.51H253.194V111.487H262.514C261.268 114.826 258.228 116.87 253.593 116.87C246.815 116.87 242.629 112.534 242.629 106.603C242.629 100.473 247.014 96.1376 252.895 96.1376C256.832 96.1376 259.972 97.9317 261.417 100.224L268.195 96.3369C265.255 91.6523 259.623 88.3631 252.945 88.3631C242.679 88.3631 234.655 96.4366 234.655 106.553C234.655 116.57 242.529 124.644 253.493 124.644C263.261 124.644 270.687 118.165 270.687 107.5V104.51ZM275.874 89.0608V123.946H283.848V89.0608H275.874ZM313.957 89.0608H288.042V96.7356H297.013V123.946H304.987V96.7356H313.957V89.0608ZM337.835 123.946H346.557L334.696 89.0608H324.529L312.668 123.946H321.389L323.133 118.464H336.091L337.835 123.946ZM325.526 110.989L329.612 98.1808L333.699 110.989H325.526ZM358.197 116.271V89.0608H350.223V123.946H370.656V116.271H358.197ZM400.222 124.644C407.797 124.644 413.179 120.657 413.179 113.929C413.179 106.553 407.249 104.709 401.966 103.115C396.534 101.47 395.687 100.374 395.687 98.7789C395.687 97.3835 396.932 96.1376 399.424 96.1376C402.614 96.1376 404.258 97.6825 405.454 100.174L412.182 96.2372C409.641 91.1041 405.155 88.3631 399.424 88.3631C393.394 88.3631 387.713 92.2503 387.713 98.9782C387.713 105.656 392.796 108.148 397.979 109.593C403.212 111.039 405.205 111.886 405.205 114.029C405.205 115.374 404.258 116.87 400.471 116.87C396.534 116.87 394.391 114.926 393.145 112.035L386.267 116.022C388.211 121.155 392.896 124.644 400.222 124.644ZM434.258 124.644C440.637 124.644 446.219 121.504 449.209 116.57L442.332 112.584C440.837 115.275 437.797 116.87 434.258 116.87C428.079 116.87 424.092 112.733 424.092 106.504C424.092 100.274 428.079 96.1376 434.258 96.1376C437.797 96.1376 440.787 97.7323 442.332 100.423L449.209 96.4366C446.169 91.5028 440.588 88.3631 434.258 88.3631C423.743 88.3631 416.118 96.2372 416.118 106.504C416.118 116.77 423.743 124.644 434.258 124.644ZM469.797 124.644C479.814 124.644 487.937 116.77 487.937 106.504C487.937 96.2372 479.814 88.3631 469.797 88.3631C459.78 88.3631 451.657 96.2372 451.657 106.504C451.657 116.77 459.78 124.644 469.797 124.644ZM469.797 116.87C464.116 116.87 459.63 112.733 459.63 106.504C459.63 100.274 464.116 96.1376 469.797 96.1376C475.478 96.1376 479.964 100.274 479.964 106.504C479.964 112.733 475.478 116.87 469.797 116.87ZM511.459 123.946H520.031L512.605 111.138C516.443 109.195 519.034 105.307 519.034 101.022C519.034 94.3933 513.702 89.0608 507.073 89.0608H493.119V123.946H501.093V112.484H504.881L511.459 123.946ZM501.093 96.5362H507.073C509.266 96.5362 511.06 98.4799 511.06 101.022C511.06 103.563 509.266 105.507 507.073 105.507H501.093V96.5362ZM532.446 116.271V110.092H544.905V102.517H532.446V96.7356H546.151V89.0608H524.473V123.946H546.401V116.271H532.446Z" fill="#131220"/>
<path d="M192.344 153.264C194.696 153.264 196.712 152.064 197.672 150.216L196.664 149.616C195.872 151.104 194.288 152.112 192.344 152.112C189.44 152.112 187.256 149.856 187.256 147C187.256 144.144 189.44 141.888 192.344 141.888C194.264 141.888 195.896 142.872 196.592 144.384L197.576 143.808C196.712 141.936 194.696 140.736 192.344 140.736C188.72 140.736 186.032 143.448 186.032 147C186.032 150.552 188.72 153.264 192.344 153.264ZM205.584 140.736C201.912 140.736 199.368 143.472 199.368 147C199.368 150.624 201.984 153.264 205.68 153.264C208.056 153.264 209.928 152.184 210.912 150.552L209.856 149.928C209.16 151.2 207.672 152.112 205.704 152.112C202.968 152.112 200.904 150.336 200.616 147.624H211.488C211.488 147.432 211.512 147.24 211.512 147.048C211.512 143.76 209.232 140.736 205.584 140.736ZM205.584 141.888C207.936 141.888 210 143.52 210.264 146.448H200.616C200.856 143.784 202.848 141.888 205.584 141.888ZM215.517 143.352V141H214.317V153H215.517V146.328C215.517 143.256 217.461 141.984 219.525 141.984V140.832C217.893 140.832 216.333 141.456 215.517 143.352ZM228.265 142.176V141H224.689V137.64L223.465 138V141H220.825V142.176H223.465V149.976C223.465 152.712 225.121 153.48 228.265 153V151.92C225.817 152.136 224.689 152.088 224.689 149.976V142.176H228.265ZM231.745 138.096C232.273 138.096 232.705 137.664 232.705 137.136C232.705 136.632 232.273 136.2 231.745 136.2C231.217 136.2 230.785 136.632 230.785 137.136C230.785 137.664 231.217 138.096 231.745 138.096ZM231.145 153H232.345V141H231.145V153ZM244.611 141H238.131V140.352C238.131 138.024 239.259 137.088 241.707 137.088C242.499 137.088 243.243 137.16 244.035 137.304V136.2C243.243 136.032 242.499 135.936 241.707 135.936C238.563 135.936 236.907 137.4 236.907 140.352V141H234.843V142.176H236.907V153H238.131V142.176H243.387V153H244.611V141ZM255.886 136.272H254.446L252.526 139.32H253.702L255.886 136.272ZM253.678 140.736C250.006 140.736 247.462 143.472 247.462 147C247.462 150.624 250.078 153.264 253.774 153.264C256.15 153.264 258.022 152.184 259.006 150.552L257.95 149.928C257.254 151.2 255.766 152.112 253.798 152.112C251.062 152.112 248.998 150.336 248.71 147.624H259.582C259.582 147.432 259.606 147.24 259.606 147.048C259.606 143.76 257.326 140.736 253.678 140.736ZM253.678 141.888C256.03 141.888 258.094 143.52 258.358 146.448H248.71C248.95 143.784 250.942 141.888 253.678 141.888ZM279.369 141V143.712C278.361 141.912 276.513 140.736 274.209 140.736C270.801 140.736 267.993 143.448 267.993 147C267.993 150.552 270.801 153.264 274.209 153.264C276.513 153.264 278.361 152.088 279.369 150.288V153H280.593V141H279.369ZM274.305 152.112C271.449 152.112 269.217 149.856 269.217 147C269.217 144.144 271.449 141.888 274.305 141.888C277.161 141.888 279.369 144.144 279.369 147C279.369 149.856 277.161 152.112 274.305 152.112ZM294.124 141L289.588 151.752L285.076 141H283.78L288.868 153H290.332L295.396 141H294.124ZM303.543 140.736C299.871 140.736 297.327 143.472 297.327 147C297.327 150.624 299.943 153.264 303.639 153.264C306.015 153.264 307.887 152.184 308.871 150.552L307.815 149.928C307.119 151.2 305.631 152.112 303.663 152.112C300.927 152.112 298.863 150.336 298.575 147.624H309.447C309.447 147.432 309.471 147.24 309.471 147.048C309.471 143.76 307.191 140.736 303.543 140.736ZM303.543 141.888C305.895 141.888 307.959 143.52 308.223 146.448H298.575C298.815 143.784 300.807 141.888 303.543 141.888ZM318.81 153.264C321.162 153.264 323.178 152.064 324.138 150.216L323.13 149.616C322.338 151.104 320.754 152.112 318.81 152.112C315.906 152.112 313.722 149.856 313.722 147C313.722 144.144 315.906 141.888 318.81 141.888C320.73 141.888 322.362 142.872 323.058 144.384L324.042 143.808C323.178 141.936 321.162 140.736 318.81 140.736C315.186 140.736 312.498 143.448 312.498 147C312.498 150.552 315.186 153.264 318.81 153.264ZM340.906 137.088V135.936C337.762 135.696 336.106 137.4 336.106 140.352V141H334.042V142.176H336.106V153H337.33V142.176H340.906V141H337.33V140.352C337.33 138.024 338.458 136.896 340.906 137.088ZM343.966 143.352V141H342.766V153H343.966V146.328C343.966 143.256 345.91 141.984 347.974 141.984V140.832C346.342 140.832 344.782 141.456 343.966 143.352ZM359.046 141V147.336C359.046 150.576 357.198 152.112 354.846 152.112C352.59 152.112 351.318 150.672 351.318 148.464V141H350.094V148.464C350.094 151.368 351.894 153.264 354.75 153.264C356.598 153.264 358.134 152.496 359.046 150.72V153H360.246V141H359.046ZM374.609 141V143.784C373.625 141.936 371.777 140.736 369.449 140.736C366.017 140.736 363.233 143.448 363.233 147C363.233 150.552 366.017 153.264 369.449 153.264C371.777 153.264 373.625 152.064 374.609 150.216V152.424C374.609 155.16 372.833 156.912 369.833 156.912C367.193 156.912 365.849 155.856 365.225 154.584L364.169 155.184C365.033 156.936 367.025 158.064 369.833 158.064C373.145 158.064 375.809 156.024 375.809 152.424V141H374.609ZM369.521 152.112C366.665 152.112 364.433 149.856 364.433 147C364.433 144.144 366.665 141.888 369.521 141.888C372.377 141.888 374.609 144.144 374.609 147C374.609 149.856 372.377 152.112 369.521 152.112ZM390.172 141V143.784C389.188 141.936 387.34 140.736 385.012 140.736C381.58 140.736 378.796 143.448 378.796 147C378.796 150.552 381.58 153.264 385.012 153.264C387.34 153.264 389.188 152.064 390.172 150.216V152.424C390.172 155.16 388.396 156.912 385.396 156.912C382.756 156.912 381.412 155.856 380.788 154.584L379.732 155.184C380.596 156.936 382.588 158.064 385.396 158.064C388.708 158.064 391.372 156.024 391.372 152.424V141H390.172ZM385.084 152.112C382.228 152.112 379.996 149.856 379.996 147C379.996 144.144 382.228 141.888 385.084 141.888C387.94 141.888 390.172 144.144 390.172 147C390.172 149.856 387.94 152.112 385.084 152.112ZM396.278 143.352V141H395.078V153H396.278V146.328C396.278 143.256 398.222 141.984 400.286 141.984V140.832C398.654 140.832 397.094 141.456 396.278 143.352ZM401.751 153.24C402.351 153.24 402.831 152.76 402.831 152.16C402.831 151.56 402.351 151.08 401.751 151.08C401.127 151.08 400.671 151.56 400.671 152.16C400.671 152.76 401.127 153.24 401.751 153.24ZM406.741 138.096C407.269 138.096 407.701 137.664 407.701 137.136C407.701 136.632 407.269 136.2 406.741 136.2C406.213 136.2 405.781 136.632 405.781 137.136C405.781 137.664 406.213 138.096 406.741 138.096ZM406.141 153H407.341V141H406.141V153ZM416.535 153.264C420.015 153.264 422.823 150.552 422.823 147C422.823 143.448 420.015 140.736 416.535 140.736C413.031 140.736 410.223 143.448 410.223 147C410.223 150.552 413.031 153.264 416.535 153.264ZM416.535 152.112C413.679 152.112 411.447 149.856 411.447 147C411.447 144.144 413.679 141.888 416.535 141.888C419.391 141.888 421.599 144.144 421.599 147C421.599 149.856 419.391 152.112 416.535 152.112Z" fill="#131220"/>
<circle cx="92" cy="92" r="61.5" stroke="#007F3C" stroke-width="19"/>
</svg>
