<svg version="1.1" id="Layer_1" xmlns="http://www.w3.org/2000/svg" x="0" y="0" viewBox="0 0 512 512" style="enable-background:new 0 0 512 512" xml:space="preserve"><style>.st2{fill:#4285f4}</style><path d="M71.5 140.2c0-37.9 30.8-68.7 68.7-68.7h58.7V0h-58.7C62.9 0 0 62.9 0 140.2V199h71.5v-58.8z" style="fill:#ea4335"/><path d="M371.8 71.5c37.9 0 68.7 30.8 68.7 68.7V199H512v-58.8C512 62.9 449.1 0 371.8 0h-58.7v71.5h58.7z" style="fill:#fbbc04"/><path class="st2" d="M140.2 440.5c-37.9 0-68.7-30.8-68.7-68.7v-58.6H0v58.6C0 449.1 62.9 512 140.2 512H199v-71.5h-58.8z"/><circle class="st2" cx="256" cy="256" r="99.3"/><path d="M483.5 427.2c0 31.3-25.4 56.6-56.6 56.6-31.3 0-56.6-25.4-56.6-56.6 0-31.3 25.4-56.6 56.6-56.6 31.2 0 56.6 25.4 56.6 56.6z" style="fill:#34a853"/></svg>