<?xml version="1.0" encoding="UTF-8" standalone="no"?>
<!-- Created with Inkscape (http://www.inkscape.org/) -->

<svg
   width="86mm"
   height="70.660004mm"
   viewBox="0 0 86 70.660004"
   version="1.1"
   id="svg5"
   xml:space="preserve"
   inkscape:export-filename="home-mona.svg"
   inkscape:export-xdpi="96"
   inkscape:export-ydpi="96"
   xmlns:inkscape="http://www.inkscape.org/namespaces/inkscape"
   xmlns:sodipodi="http://sodipodi.sourceforge.net/DTD/sodipodi-0.dtd"
   xmlns="http://www.w3.org/2000/svg"
   xmlns:svg="http://www.w3.org/2000/svg"><sodipodi:namedview
     id="namedview7"
     pagecolor="#ffffff"
     bordercolor="#000000"
     borderopacity="0.25"
     inkscape:showpageshadow="2"
     inkscape:pageopacity="0.0"
     inkscape:pagecheckerboard="0"
     inkscape:deskcolor="#d1d1d1"
     inkscape:document-units="mm"
     showgrid="false"
     inkscape:zoom="0.78127806"
     inkscape:cx="396.78575"
     inkscape:cy="561.89982"
     inkscape:window-width="1858"
     inkscape:window-height="1057"
     inkscape:window-x="-8"
     inkscape:window-y="-8"
     inkscape:window-maximized="1"
     inkscape:current-layer="layer1" /><defs
     id="defs2" /><g
     inkscape:groupmode="layer"
     id="layer3"
     inkscape:label="Calque 2"><g
       style="clip-rule:evenodd;fill-rule:evenodd;stroke-linecap:round;stroke-linejoin:round"
       id="g425"
       transform="matrix(0.26458333,0,0,0.26458333,-155.50635,-85.623504)"><path
         d="m 753.959,395.282 -2.329,22.599 c 0,0 7.757,8.615 42.936,-2.217 l 5.322,-66.378 -38.347,-18.218 -19.052,18.385 c 0,0 -4.433,18.85 -3.769,27.211 0.645,8.56 4.815,18.34 15.239,18.618 z"
         style="fill:#d07b59;fill-rule:nonzero;stroke:#1c7abe;stroke-width:0.31px"
         id="path209" /><path
         d="m 808.109,338.353 c 0,0 8.815,7.252 12.972,31.569 2.924,17.121 12.302,18.473 17.524,17.742 1.803,-0.208 3.625,0.003 5.328,0.616 1.703,0.614 3.243,1.613 4.495,2.921 4.151,4.213 8.208,11.765 4.495,24.038 -6.486,21.424 -14.418,21.455 -14.418,21.455 0,0 -24.643,-23.715 -43.882,-21.067 0,0 -6.793,4.094 -5.666,-26.61 0,0 0.713,-22.544 1.765,-22.754 1.052,-0.211 6.13,2.949 5.178,-8.993 -0.952,-11.943 -8.352,-0.942 -8.352,-0.942 0,0 -20.498,-4.968 -25.5,-19.771 0,0 -5.284,13.428 -19.559,12.785 0,0 -3.381,-9.98 9.304,-19.228 12.684,-9.248 38.572,-9.591 56.316,8.239 z"
         style="fill:#1c7abe;fill-rule:nonzero;stroke:#1c7abe;stroke-width:0.47px"
         id="path211" /><path
         d="m 770.412,358.645 c 0,0 -1.822,7.041 -6.048,7.041 -4.219,0 -2.535,-10.146 -2.535,-10.146"
         style="fill:none;fill-rule:nonzero;stroke:#1c7abe;stroke-width:0.47px"
         id="path213" /><path
         d="m 753.959,355.54 c 0,0 0.288,8.738 -4.226,8.738 -4.514,0 -3.669,-8.738 -3.669,-8.738"
         style="fill:none;fill-rule:nonzero;stroke:#1c7abe;stroke-width:0.47px"
         id="path215" /><path
         d="m 768.615,372.172 c 0,0 -7.331,15.525 -16.065,6.765"
         style="fill:none;fill-rule:nonzero;stroke:#1c7abe;stroke-width:0.47px"
         id="path217" /><path
         d="m 834.404,590.385 -1.108,-52.215 c 0,0 43.243,48.045 47.676,49.178 4.432,1.127 29.595,7.895 30.014,-17.48 0.42,-25.369 -8.659,-61.293 -29.795,-86.243 -21.13,-24.949 -60.667,-76.102 -90.913,-66.796 -30.246,9.303 -38.673,1.108 -38.673,1.108 0,0 -56.016,30.659 -79.682,72.719 l -39.53,-55.376 -31.041,19.014 c 0,0 22.814,69.338 37.408,79.906 14.588,10.569 22.771,20.292 47.851,11.42 25.081,-8.872 29.295,-19.872 29.295,-19.872 l 2.291,64.693 z"
         style="fill:#1c7abe;fill-rule:nonzero;stroke:#1c7abe;stroke-width:0.47px"
         id="path219" /><path
         d="m 879.075,521.046 -38.679,-31.078 -14.795,31.078 7.676,17.124"
         style="fill:none;fill-rule:nonzero;stroke:#1c7abe;stroke-width:0.47px"
         id="path221" /><path
         d="m 717.803,491.019 -1.897,34.673"
         style="fill:none;fill-rule:nonzero;stroke:#1c7abe;stroke-width:0.47px"
         id="path223" /><path
         d="m 625.168,439.581 c -0.745,-28.598 -6.255,-39.798 -7.263,-39.565 -1.277,0.299 2.035,16.775 0.251,17.232 -2.361,0.601 -8.171,-29.229 -12.259,-27.411 -2.46,1.109 7.325,27.631 5.741,28.188 -1.584,0.551 -10.531,-28.266 -13.836,-27.146 -4.921,1.675 9.222,29.763 7.306,30.539 -1.916,0.776 -11.833,-24.795 -14.35,-23.486 -4.363,2.218 10.168,25.903 7.833,27.142 -1.109,0.589 -7.833,-12.96 -10.18,-12.008 -2.937,1.378 9.704,28.6 19.283,37.214 z"
         style="fill:#d07b59;fill-rule:nonzero;stroke:#1c7abe;stroke-width:0.31px"
         id="path225" /><path
         d="m 831.587,498.351 c -14.488,-24.674 -24.731,-31.818 -25.501,-31.116 -0.976,0.876 9.905,13.692 8.559,14.944 -1.772,1.678 -21.293,-21.606 -23.992,-18.037 -1.615,2.147 19.791,20.623 18.664,21.888 -1.133,1.264 -22.883,-19.641 -25.237,-17.055 -3.494,3.851 22.476,21.569 21.167,23.178 -1.308,1.602 -22.344,-15.972 -23.916,-13.605 -2.73,4.088 21.431,17.737 19.96,19.959 -0.702,1.109 -13.129,-7.556 -14.713,-5.547 -1.91,2.63 22.326,20.335 34.866,23.284 z"
         style="fill:#d07b59;fill-rule:nonzero;stroke:#1c7abe;stroke-width:0.31px"
         id="path227" /><path
         d="m 669.45,923.403 h 58.595 l 30.922,-156.914 10.412,164.077 h 69.007 L 834.154,590.385 H 717.953 Z"
         style="fill:#c9e4f4;fill-rule:nonzero;stroke:#1c7abe;stroke-width:0.47px"
         id="path229" /><path
         d="m 624.535,983.952 h 64.449 c 0,0 0.319,-7.169 4.558,-7.169 4.232,0 2.924,7.169 2.924,7.169 h 27.021 l -3.581,-60.549 h -37.765 c 0,0 -4.22,15.627 -8.139,20.836 -3.913,5.216 -12.691,16.635 -22.783,17.255 -6.693,0.62 -13.21,2.504 -19.202,5.547 0,0 -7.482,5.19 -7.482,16.911 z"
         style="fill:#f9b567;fill-rule:nonzero;stroke:#1c7abe;stroke-width:0.47px"
         id="path231" /><path
         d="m 625.556,976.896 h 97.618"
         style="fill:none;fill-rule:nonzero;stroke:#1c7abe;stroke-width:0.47px"
         id="path233" /><path
         d="m 678.454,934.929 h 6.617"
         style="fill:none;fill-rule:nonzero;stroke:#1c7abe;stroke-width:0.47px"
         id="path235" /><path
         d="m 674.002,944.239 h 10.092"
         style="fill:none;fill-rule:nonzero;stroke:#1c7abe;stroke-width:0.47px"
         id="path237" /><path
         d="m 667.672,951.89 h 10.782"
         style="fill:none;fill-rule:nonzero;stroke:#1c7abe;stroke-width:0.47px"
         id="path239" /><path
         d="m 660.767,957.857 h 12.296"
         style="fill:none;fill-rule:nonzero;stroke:#1c7abe;stroke-width:0.47px"
         id="path241" /><path
         d="m 730.03,991.114 h 64.449 c 0,0 0.325,-7.162 4.558,-7.162 4.238,0 2.93,7.162 2.93,7.162 h 27.015 l -3.581,-60.548 h -37.759 c 0,0 -4.239,15.627 -8.139,20.829 -3.907,5.197 -12.697,16.629 -22.789,17.249 -6.693,0.626 -13.204,2.511 -19.202,5.547 0,0 -7.482,5.203 -7.482,16.923 z"
         style="fill:#f9b567;fill-rule:nonzero;stroke:#1c7abe;stroke-width:0.47px"
         id="path243" /><path
         d="m 731.038,984.058 h 97.637"
         style="fill:none;fill-rule:nonzero;stroke:#1c7abe;stroke-width:0.47px"
         id="path245" /><path
         d="m 783.948,942.092 h 6.618"
         style="fill:none;fill-rule:nonzero;stroke:#1c7abe;stroke-width:0.47px"
         id="path247" /><path
         d="m 779.503,951.402 h 10.086"
         style="fill:none;fill-rule:nonzero;stroke:#1c7abe;stroke-width:0.47px"
         id="path249" /><path
         d="m 773.161,959.052 h 10.787"
         style="fill:none;fill-rule:nonzero;stroke:#1c7abe;stroke-width:0.47px"
         id="path251" /><path
         d="m 766.261,965.019 h 12.297"
         style="fill:none;fill-rule:nonzero;stroke:#1c7abe;stroke-width:0.47px"
         id="path253" /><path
         d="m 674.002,900.451 h 58.564"
         style="fill:none;fill-rule:nonzero;stroke:#1c7abe;stroke-width:0.47px"
         id="path255" /><path
         d="m 767.939,907.783 h 70.447"
         style="fill:none;fill-rule:nonzero;stroke:#1c7abe;stroke-width:0.47px"
         id="path257" /><path
         d="m 815.922,590.385 3.913,317.398"
         style="fill:none;fill-rule:nonzero;stroke:#1c7abe;stroke-width:0.47px"
         id="path259" /><path
         d="m 753.921,684.622 5.046,81.867"
         style="fill:none;fill-rule:nonzero;stroke:#1c7abe;stroke-width:0.47px"
         id="path261" /><path
         d="m 790.566,590.385 c 0,0 -7.839,39.061 25.356,39.061"
         style="fill:none;fill-rule:nonzero;stroke:#1c7abe;stroke-width:0.47px"
         id="path263" /></g></g></svg>
