<svg width="122" height="37" viewBox="0 0 122 37" fill="none" xmlns="http://www.w3.org/2000/svg">
<path d="M71.1291 25.7673H43.0469V32.2647H71.1291V25.7673Z" fill="#E94B4F"/>
<path d="M51.1304 13.1043H49.641V9.08823C49.641 8.73529 49.641 8.47325 49.641 8.30213C49.5127 8.56844 49.3638 8.82413 49.1957 9.06684L47.86 11.1203H47.1709L45.6815 8.98128C45.5086 8.76043 45.356 8.52416 45.2256 8.27539H45.1991C45.1991 8.46256 45.1991 8.70855 45.1991 9.01871V13.0775H43.7256V5.83154H45.1037L46.996 8.55881C47.1877 8.8195 47.3647 9.09088 47.5261 9.37165C47.6733 9.07679 47.8379 8.79107 48.019 8.51603L49.747 5.84224H51.1251L51.1304 13.1043Z" fill="#23333C"/>
<path d="M56.9237 10.9064H53.5791C53.5811 11.0668 53.6206 11.2245 53.6942 11.3666C53.7679 11.5088 53.8737 11.6314 54.0031 11.7246C54.2786 11.9312 54.614 12.0402 54.9572 12.0348C55.4425 12.0289 55.9191 11.9041 56.346 11.6711L56.6852 12.6177C56.1035 13.0148 55.4157 13.2237 54.7134 13.2166C54.349 13.2425 53.9834 13.1853 53.6439 13.0492C53.3044 12.9131 52.9996 12.7017 52.7522 12.4305C52.3079 11.897 52.0722 11.218 52.0896 10.5214C52.0692 9.8115 52.3003 9.11752 52.7416 8.56418C52.9552 8.30015 53.2269 8.09013 53.5352 7.95086C53.8435 7.81159 54.1798 7.74693 54.5173 7.76204C54.8434 7.74982 55.1681 7.81007 55.4686 7.93852C55.769 8.06697 56.0378 8.26048 56.2559 8.50535C56.719 9.0451 56.9582 9.74415 56.9237 10.4572V10.9064ZM55.4131 9.87968C55.3971 9.61796 55.3049 9.36682 55.148 9.15776C55.0678 9.05717 54.9647 8.97748 54.8476 8.92537C54.7305 8.87326 54.6026 8.85026 54.4749 8.85829C54.346 8.8539 54.2179 8.88017 54.101 8.93498C53.984 8.98979 53.8815 9.0716 53.8017 9.1738C53.6379 9.37199 53.548 9.62167 53.5473 9.87968H55.4131Z" fill="#23333C"/>
<path d="M61.5618 11.5589C61.578 11.8029 61.5296 12.0469 61.4215 12.2658C61.3135 12.4848 61.1497 12.6708 60.9469 12.8049C60.49 13.0921 59.9585 13.2355 59.4204 13.2166C58.6992 13.232 57.9877 13.047 57.3638 12.6819L57.8302 11.6124C58.2477 11.9282 58.7554 12.099 59.2773 12.099C59.8073 12.099 60.0829 11.9439 60.0829 11.623C60.0783 11.5446 60.0534 11.4687 60.0106 11.403C59.9678 11.3373 59.9087 11.2841 59.8391 11.2487C59.6518 11.136 59.4527 11.0446 59.2455 10.976C59.0122 10.8958 58.7737 10.7995 58.5405 10.6926C58.2978 10.5831 58.089 10.4094 57.9362 10.1899C57.7676 9.94777 57.682 9.65673 57.6924 9.36102C57.6824 9.13893 57.7252 8.91765 57.8175 8.71574C57.9097 8.51383 58.0486 8.33717 58.2225 8.20059C58.6599 7.88525 59.1911 7.7305 59.7278 7.76209C60.2693 7.75677 60.8075 7.84727 61.318 8.02947V9.26476C60.8342 9.05016 60.3143 8.93038 59.7861 8.91182C59.3462 8.91182 59.1288 9.03482 59.1288 9.28615C59.1288 9.40915 59.2137 9.52145 59.378 9.6177C59.5725 9.72425 59.7766 9.81198 59.9875 9.87974C60.2261 9.9653 60.4646 10.0616 60.7031 10.1739C60.9505 10.2954 61.1623 10.4797 61.318 10.7086C61.4845 10.9597 61.5697 11.2568 61.5618 11.5589Z" fill="#23333C"/>
<path d="M69.4809 10.9064H66.1309C66.1371 11.0665 66.179 11.2231 66.2533 11.3648C66.3276 11.5064 66.4325 11.6293 66.5602 11.7246C66.8341 11.9304 67.1676 12.0394 67.5091 12.0347C67.9944 12.0295 68.4712 11.9046 68.8978 11.6711L69.237 12.6176C68.6573 13.0146 67.9712 13.2236 67.2705 13.2165C66.906 13.2432 66.5403 13.1864 66.2006 13.0503C65.861 12.9141 65.5563 12.7022 65.3093 12.4304C64.8628 11.8982 64.6269 11.2183 64.6468 10.5213C64.6263 9.81146 64.8575 9.11747 65.2987 8.56413C65.512 8.29978 65.7837 8.08953 66.0921 7.95023C66.4005 7.81093 66.7369 7.74646 67.0744 7.76199C67.4005 7.74977 67.7252 7.81002 68.0257 7.93847C68.3261 8.06692 68.5949 8.26043 68.813 8.50531C69.2762 9.04505 69.5154 9.74411 69.4809 10.4572V10.9064ZM67.9702 9.87964C67.9542 9.61792 67.862 9.36678 67.7052 9.15771C67.6249 9.05712 67.5218 8.97743 67.4047 8.92532C67.2876 8.87321 67.1598 8.85021 67.032 8.85825C66.903 8.85298 66.7746 8.87886 66.6575 8.93374C66.5405 8.98862 66.438 9.0709 66.3588 9.17375C66.1903 9.36951 66.098 9.62036 66.0991 9.87964H67.9702ZM68.6805 5.60156L67.5674 7.20584H66.4648L67.1009 5.60156H68.6805Z" fill="#23333C"/>
<path d="M75.1791 7.91174L73.0112 13.1631H71.9511L69.7778 7.91174H71.262L72.4864 11.254L73.7108 7.91174H75.1791Z" fill="#23333C"/>
<path d="M80.3153 10.9064H76.9706C76.9769 11.0665 77.0187 11.2231 77.093 11.3648C77.1673 11.5064 77.2722 11.6293 77.4 11.7246C77.6731 11.9318 78.007 12.041 78.3488 12.0347C78.8282 12.0205 79.2972 11.8902 79.7163 11.655L80.0555 12.6016C79.4878 12.9965 78.8157 13.2107 78.1261 13.2165C77.7609 13.2425 77.3946 13.1853 77.0542 13.0493C76.7138 12.9132 76.4081 12.7017 76.1596 12.4304C75.7076 11.9 75.4643 11.2207 75.4759 10.5213C75.4554 9.81146 75.6866 9.11747 76.1278 8.56413C76.3425 8.3 76.6152 8.08999 76.9244 7.95075C77.2335 7.81151 77.5706 7.74688 77.9088 7.76199C78.2348 7.75051 78.5593 7.81109 78.8597 7.93949C79.16 8.0679 79.4288 8.26101 79.6474 8.50531C80.1067 9.04697 80.3437 9.74514 80.3099 10.4572L80.3153 10.9064ZM78.8099 9.87964C78.7943 9.61693 78.7001 9.36518 78.5396 9.15771C78.4596 9.05678 78.3566 8.97684 78.2394 8.9247C78.1222 8.87256 77.9942 8.84976 77.8664 8.85825C77.7376 8.85427 77.6096 8.88073 77.4928 8.93551C77.3759 8.99029 77.2733 9.07188 77.1932 9.17375C77.0295 9.37194 76.9395 9.62162 76.9388 9.87964H78.8099ZM79.5202 5.60156L78.4018 7.20584H77.278L77.9141 5.60156H79.5202Z" fill="#23333C"/>
<path d="M86.0344 13.1043H84.5609V10.0829C84.5609 9.3824 84.3223 9.01342 83.84 9.01342C83.4004 9.03966 82.9783 9.19589 82.6262 9.46262V13.0829H81.1367V7.91181H82.3929L82.5467 8.44657C83.0606 8.02247 83.7009 7.78514 84.3647 7.77278C84.8022 7.76429 85.2259 7.92722 85.5468 8.22732C85.724 8.41776 85.8591 8.644 85.9432 8.89106C86.0272 9.13812 86.0583 9.40038 86.0344 9.66048V13.1043Z" fill="#23333C"/>
<path d="M91.7006 10.9064H88.3559C88.3592 11.0666 88.3992 11.2238 88.4728 11.3658C88.5463 11.5077 88.6515 11.6305 88.78 11.7246C89.0555 11.9312 89.3909 12.0402 89.7341 12.0348C90.2193 12.0289 90.6959 11.9041 91.1228 11.6712L91.462 12.6177C90.8804 13.0148 90.1926 13.2237 89.4902 13.2166C89.1258 13.2425 88.7603 13.1853 88.4208 13.0493C88.0812 12.9132 87.7765 12.7017 87.5291 12.4305C87.0847 11.897 86.8491 11.218 86.8665 10.5214C86.846 9.81153 87.0772 9.11754 87.5184 8.5642C87.7326 8.30081 88.0044 8.09125 88.3126 7.95204C88.6208 7.81283 88.9568 7.74779 89.2941 7.76206C89.6202 7.74984 89.945 7.81009 90.2454 7.93854C90.5458 8.06699 90.8146 8.2605 91.0327 8.50538C91.4959 9.04512 91.7351 9.74418 91.7006 10.4572V10.9064ZM90.1899 9.87971C90.174 9.61799 90.0818 9.36685 89.9249 9.15778C89.8446 9.05719 89.7416 8.9775 89.6244 8.92539C89.5073 8.87329 89.3795 8.85028 89.2517 8.85832C89.1228 8.85392 88.9948 8.88019 88.8778 8.935C88.7609 8.98981 88.6583 9.07163 88.5786 9.17383C88.4148 9.37201 88.3248 9.62169 88.3241 9.87971H90.1899Z" fill="#23333C"/>
<path d="M100.627 13.1043H99.1481V10.0508C99.162 9.79665 99.1129 9.54299 99.005 9.31285C98.9417 9.22055 98.854 9.14805 98.7519 9.10361C98.6497 9.05918 98.5372 9.04459 98.4273 9.06151C98.018 9.06789 97.6239 9.21934 97.3141 9.48932V13.131H95.8353V10.0508C95.8479 9.79329 95.7988 9.53648 95.6922 9.30216C95.6319 9.20878 95.5467 9.13457 95.4463 9.08819C95.3459 9.0418 95.2345 9.02513 95.125 9.04013C94.7117 9.05066 94.314 9.20137 93.996 9.46793V13.1096H92.5225V7.91178H93.7681L93.9112 8.44654C94.3885 8.03261 94.9893 7.79166 95.618 7.76205C95.8956 7.73814 96.1741 7.79681 96.419 7.93082C96.6639 8.06482 96.8646 8.26828 96.9961 8.51606C97.5017 8.0534 98.1533 7.78627 98.8354 7.76205C99.2988 7.74315 99.7525 7.89953 100.108 8.20055C100.288 8.38806 100.426 8.61281 100.512 8.8593C100.598 9.1058 100.63 9.36818 100.606 9.62836L100.627 13.1043Z" fill="#23333C"/>
<path d="M106.288 10.9064H102.943C102.949 11.0665 102.991 11.2232 103.065 11.3648C103.14 11.5064 103.245 11.6294 103.372 11.7246C103.645 11.9319 103.979 12.0411 104.321 12.0348C104.801 12.0205 105.27 11.8903 105.689 11.6551L106.028 12.6016C105.46 12.9965 104.788 13.2107 104.098 13.2166C103.733 13.2426 103.367 13.1854 103.027 13.0493C102.686 12.9133 102.38 12.7018 102.132 12.4305C101.68 11.9003 101.436 11.2209 101.448 10.5214C101.426 9.81217 101.656 9.11826 102.095 8.56418C102.31 8.30005 102.582 8.09004 102.891 7.9508C103.201 7.81156 103.538 7.74693 103.876 7.76204C104.202 7.75056 104.526 7.81114 104.827 7.93954C105.127 8.06794 105.396 8.26106 105.614 8.50536C106.074 9.04702 106.311 9.74519 106.277 10.4572L106.288 10.9064ZM104.782 9.87969C104.767 9.61698 104.672 9.36523 104.512 9.15776C104.432 9.05683 104.329 8.97689 104.212 8.92475C104.095 8.87261 103.967 8.84981 103.839 8.8583C103.71 8.85432 103.582 8.88078 103.465 8.93556C103.348 8.99034 103.246 9.07193 103.166 9.1738C103.002 9.37199 102.912 9.62167 102.911 9.87969H104.782Z" fill="#23333C"/>
<path d="M112.012 13.1043H110.534V10.0829C110.534 9.38237 110.295 9.01338 109.813 9.01338C109.373 9.03962 108.951 9.19585 108.599 9.46258V13.0829H107.109V7.91178H108.366L108.519 8.44654C109.034 8.02317 109.674 7.78593 110.337 7.77274C110.775 7.76313 111.199 7.92621 111.519 8.22729C111.697 8.41747 111.833 8.64352 111.918 8.89055C112.003 9.13758 112.035 9.39998 112.012 9.66044V13.1043Z" fill="#23333C"/>
<path d="M116.735 12.7941C116.197 13.0825 115.595 13.2279 114.986 13.2166C114.602 13.2467 114.221 13.1239 113.926 12.8744C113.81 12.7524 113.72 12.6079 113.662 12.4497C113.604 12.2916 113.578 12.1231 113.586 11.9546V8.9813H112.632V7.91179H113.586V6.67115L115.06 6.22729V7.91179H116.677L116.253 9.01339H115.06V11.4947C115.047 11.5678 115.051 11.6431 115.073 11.7141C115.095 11.785 115.134 11.8496 115.186 11.9022C115.238 11.9547 115.302 11.9938 115.373 12.0159C115.443 12.0381 115.518 12.0427 115.59 12.0294C115.879 12.0153 116.162 11.9425 116.422 11.8155L116.735 12.7941Z" fill="#23333C"/>
<path d="M121.151 11.5588C121.166 11.8033 121.116 12.0474 121.007 12.2663C120.898 12.4852 120.734 12.671 120.53 12.8048C120.072 13.0928 119.538 13.2362 118.999 13.2166C118.277 13.2311 117.566 13.0462 116.942 12.6818L117.414 11.6123C117.829 11.9281 118.335 12.0989 118.855 12.0989C119.385 12.0989 119.666 11.9438 119.666 11.623C119.661 11.5441 119.635 11.4681 119.591 11.4025C119.547 11.3368 119.487 11.2838 119.417 11.2486C119.23 11.135 119.031 11.0434 118.824 10.9759C118.59 10.8957 118.357 10.7994 118.119 10.6925C117.876 10.583 117.667 10.4093 117.514 10.1898C117.346 9.9477 117.26 9.65665 117.271 9.36094C117.262 9.13903 117.305 8.91819 117.397 8.7165C117.49 8.5148 117.628 8.33798 117.801 8.20052C118.238 7.88596 118.769 7.73129 119.306 7.76201C119.839 7.75937 120.368 7.84983 120.87 8.02939V9.26469C120.386 9.05008 119.866 8.9303 119.338 8.91175C118.903 8.91175 118.68 9.03474 118.68 9.28608C118.68 9.40907 118.765 9.52137 118.935 9.61763C119.128 9.72424 119.33 9.81199 119.539 9.87966C119.778 9.96522 120.016 10.0615 120.255 10.1738C120.503 10.2941 120.715 10.4786 120.87 10.7085C121.052 10.954 121.15 11.2522 121.151 11.5588Z" fill="#23333C"/>
<path d="M47.383 28.0669C47.3831 28.3395 47.283 28.6024 47.1021 28.8049C46.995 28.9214 46.8626 29.0111 46.7151 29.0669C46.5318 29.1341 46.3377 29.1668 46.1427 29.1631H45.9466V30.3717H45.4165V27.0027H46.2116C46.5196 26.9848 46.8234 27.0819 47.065 27.2754C47.1729 27.3753 47.2574 27.4981 47.3125 27.635C47.3675 27.7719 47.3916 27.9194 47.383 28.0669ZM46.8529 28.0669C46.8562 27.9847 46.8423 27.9027 46.8122 27.8262C46.782 27.7498 46.7363 27.6806 46.678 27.623C46.6058 27.5597 46.5216 27.5119 46.4304 27.4825C46.3393 27.453 46.2432 27.4427 46.148 27.4519H45.936V28.7193H46.1692C46.2574 28.7313 46.3471 28.7229 46.4316 28.6945C46.516 28.6662 46.5929 28.6187 46.6564 28.5557C46.7198 28.4927 46.7681 28.4159 46.7976 28.3312C46.8271 28.2465 46.837 28.1561 46.8264 28.0669H46.8529Z" fill="white"/>
<path d="M48.798 27.8851C48.9537 27.8785 49.109 27.9057 49.2535 27.9647C49.3979 28.0237 49.5282 28.1133 49.6355 28.2273C49.8512 28.4865 49.9695 28.814 49.9695 29.1525C49.9695 29.4909 49.8512 29.8184 49.6355 30.0776C49.5273 30.1867 49.3982 30.2724 49.256 30.3294C49.1138 30.3865 48.9616 30.4136 48.8086 30.4091C48.663 30.4153 48.5176 30.392 48.3811 30.3405C48.2445 30.2891 48.1195 30.2106 48.0135 30.1097C47.8898 29.986 47.7937 29.8371 47.7315 29.673C47.6693 29.5088 47.6426 29.3332 47.6531 29.1578C47.6465 28.9866 47.6736 28.8158 47.7327 28.6552C47.7919 28.4946 47.8819 28.3473 47.9976 28.222C48.1 28.1121 48.2242 28.0252 48.3621 27.9672C48.5001 27.9091 48.6486 27.8811 48.798 27.8851ZM49.556 27.6498H49.1001L48.8086 27.222L48.5277 27.6498H48.0718L48.6019 26.9011H49.0418L49.556 27.6498ZM49.2592 28.5428C49.2075 28.4674 49.1374 28.4066 49.0558 28.3663C48.9741 28.326 48.8835 28.3076 48.7927 28.3129C48.7037 28.3095 48.6153 28.3288 48.5356 28.369C48.4559 28.4091 48.3876 28.4689 48.3369 28.5428C48.2226 28.7225 48.1669 28.9339 48.1779 29.1471C48.1659 29.3637 48.2255 29.5781 48.3475 29.7567C48.4014 29.8277 48.4708 29.8852 48.5503 29.9248C48.6298 29.9644 48.7173 29.985 48.806 29.985C48.8946 29.985 48.9821 29.9644 49.0616 29.9248C49.1411 29.8852 49.2105 29.8277 49.2645 29.7567C49.377 29.5743 49.4324 29.3618 49.4235 29.1471C49.435 28.933 49.3774 28.721 49.2592 28.5428Z" fill="white"/>
<path d="M51.3634 30.3021C51.2346 30.3719 51.0908 30.4087 50.9447 30.4091C50.8749 30.4146 50.8048 30.405 50.739 30.381C50.6732 30.3571 50.6132 30.3192 50.563 30.2701C50.4779 30.1669 50.4344 30.0351 50.4411 29.9011V26.7513H50.9712V29.6711C50.9651 29.7416 50.9799 29.8123 51.0136 29.8743C51.0291 29.8942 51.0495 29.9095 51.0727 29.9189C51.096 29.9283 51.1213 29.9314 51.1461 29.9278C51.197 29.9364 51.2489 29.9364 51.2998 29.9278L51.3634 30.3021Z" fill="white"/>
<path d="M53.6267 29.3021H52.0948C52.0922 29.3946 52.1087 29.4867 52.1434 29.5723C52.1781 29.658 52.2301 29.7353 52.2963 29.7995C52.3657 29.8684 52.4489 29.9216 52.5402 29.9557C52.6316 29.9898 52.7291 30.004 52.8263 29.9973C53.0375 29.9948 53.2441 29.9357 53.4253 29.8262L53.5631 30.1738C53.3204 30.3483 53.0289 30.4401 52.7309 30.4358C52.5685 30.4453 52.4061 30.417 52.2562 30.353C52.1064 30.289 51.9732 30.1911 51.8669 30.0668C51.6668 29.8096 51.5619 29.49 51.5701 29.1631C51.5596 28.8409 51.6608 28.5251 51.8563 28.2701C51.9463 28.1549 52.0616 28.0625 52.1932 28.0003C52.3248 27.9381 52.469 27.9078 52.6143 27.9118C52.7575 27.9055 52.9002 27.9332 53.031 27.9926C53.1617 28.052 53.2768 28.1416 53.367 28.254C53.5627 28.5125 53.6605 28.833 53.6426 29.1578L53.6267 29.3021ZM53.0966 28.9118C53.0974 28.7637 53.0509 28.6194 52.9641 28.5C52.9231 28.4429 52.8687 28.3969 52.8059 28.3661C52.743 28.3353 52.6735 28.3207 52.6037 28.3235C52.534 28.3216 52.4648 28.3367 52.4021 28.3674C52.3394 28.3981 52.2849 28.4436 52.2432 28.5C52.1487 28.6155 52.0997 28.7621 52.1054 28.9118H53.0966Z" fill="white"/>
<path d="M57.2842 29.3022H55.7471C55.7455 29.3962 55.7631 29.4895 55.7989 29.5764C55.8346 29.6632 55.8877 29.7417 55.9548 29.8069C56.022 29.8722 56.1017 29.9227 56.1891 29.9555C56.2765 29.9882 56.3696 30.0025 56.4627 29.9973C56.6755 29.9947 56.8839 29.9357 57.0669 29.8262L57.2047 30.1738C56.9598 30.3477 56.6668 30.4394 56.3672 30.4358C56.2057 30.4445 56.0443 30.4158 55.8955 30.3518C55.7467 30.2879 55.6143 30.1904 55.5086 30.0669C55.3175 29.807 55.2144 29.492 55.2144 29.1685C55.2144 28.8449 55.3175 28.5299 55.5086 28.2701C55.5993 28.1545 55.7156 28.0619 55.8481 27.9997C55.9807 27.9375 56.1257 27.9074 56.2718 27.9118C56.4143 27.9059 56.5561 27.9338 56.6859 27.9933C56.8157 28.0527 56.9298 28.142 57.0192 28.254C57.2169 28.5117 57.3165 28.8323 57.3001 29.1578L57.2842 29.3022ZM56.7542 28.9118C56.7525 28.7641 56.7063 28.6205 56.6217 28.5C56.5803 28.4432 56.5259 28.3975 56.4631 28.3668C56.4003 28.336 56.331 28.3212 56.2612 28.3235C56.1907 28.3212 56.1207 28.336 56.057 28.3667C55.9934 28.3975 55.938 28.4432 55.8955 28.5C55.8031 28.6167 55.7543 28.7625 55.7577 28.9118H56.7542Z" fill="white"/>
<path d="M61.3392 30.3716H60.8091V28.8476C60.8167 28.7207 60.793 28.5939 60.7402 28.4786C60.7091 28.4337 60.6666 28.3981 60.6172 28.3755C60.5678 28.3529 60.5132 28.3442 60.4593 28.3502C60.221 28.3669 59.9959 28.4671 59.8232 28.6336V30.3716H59.2932V28.8743C59.3005 28.7446 59.2731 28.6152 59.2137 28.5C59.1845 28.4528 59.1426 28.415 59.0927 28.3913C59.0429 28.3676 58.9873 28.3589 58.9327 28.3663C58.6937 28.3844 58.4686 28.4866 58.2967 28.655V30.3716H57.7666V27.9652H58.2065L58.2649 28.2326C58.4973 28.0307 58.7906 27.9139 59.097 27.901C59.2277 27.8996 59.3561 27.9347 59.4681 28.0026C59.5728 28.0699 59.6557 28.1665 59.7066 28.2807C59.9371 28.0524 60.2427 27.9173 60.5653 27.901C60.7594 27.8973 60.9481 27.9658 61.0953 28.0935C61.1747 28.1743 61.2354 28.2718 61.273 28.3791C61.3106 28.4864 61.3241 28.6007 61.3127 28.7139L61.3392 30.3716Z" fill="white"/>
<path d="M64.0688 29.115C64.0757 29.2876 64.0473 29.4598 63.9852 29.6208C63.9232 29.7818 63.829 29.9282 63.7084 30.0508C63.5921 30.1673 63.4538 30.259 63.3018 30.3205C63.1497 30.3821 62.987 30.4122 62.8232 30.4091C62.7016 30.4078 62.5813 30.3842 62.468 30.3396V31.5642H61.938V28.0508C62.2177 27.9446 62.5137 27.8885 62.8126 27.8851C62.9805 27.8749 63.1487 27.8991 63.3072 27.956C63.4657 28.013 63.6111 28.1016 63.7349 28.2166C63.8481 28.3356 63.9361 28.4767 63.9935 28.6311C64.051 28.7856 64.0766 28.9502 64.0688 29.115ZM63.5387 29.115C63.546 29.0071 63.5315 28.8988 63.4959 28.7968C63.4604 28.6947 63.4046 28.601 63.332 28.5214C63.189 28.3856 62.9984 28.3125 62.802 28.3182C62.6927 28.3168 62.5838 28.3312 62.4786 28.361V29.8797C62.5838 29.9273 62.6974 29.9528 62.8126 29.9546C62.9125 29.9599 63.0123 29.9419 63.1042 29.902C63.1961 29.8621 63.2777 29.8014 63.3426 29.7246C63.4706 29.5564 63.5362 29.3483 63.5281 29.1364L63.5387 29.115Z" fill="white"/>
<path d="M65.4685 30.3021C65.3397 30.3719 65.1959 30.4087 65.0497 30.4091C64.9808 30.4145 64.9115 30.4049 64.8465 30.3809C64.7816 30.3569 64.7226 30.3191 64.6734 30.2701C64.5883 30.1669 64.5447 30.0351 64.5515 29.9011V26.7513H65.0815V29.6711C65.0741 29.7411 65.087 29.8116 65.1186 29.8743C65.1345 29.8938 65.1549 29.9088 65.1781 29.9182C65.2012 29.9275 65.2264 29.9308 65.2511 29.9278C65.3038 29.9359 65.3574 29.9359 65.4101 29.9278L65.4685 30.3021Z" fill="white"/>
<path d="M66.8199 27.885C66.9755 27.8792 67.1306 27.9066 67.275 27.9656C67.4193 28.0246 67.5496 28.1138 67.6574 28.2273C67.8826 28.4762 68.0008 28.805 67.986 29.1417C67.9933 29.3126 67.967 29.4832 67.9088 29.6437C67.8506 29.8043 67.7616 29.9518 67.6468 30.0775C67.538 30.1859 67.4088 30.2711 67.2667 30.3281C67.1247 30.3851 66.9727 30.4126 66.8199 30.4091C66.6734 30.4157 66.5271 30.3926 66.3896 30.3411C66.2522 30.2897 66.1263 30.211 66.0195 30.1096C65.8966 29.9854 65.801 29.8364 65.7389 29.6724C65.6768 29.5084 65.6496 29.3331 65.6591 29.1578C65.6525 28.9866 65.6796 28.8157 65.7387 28.6551C65.7978 28.4945 65.8879 28.3473 66.0036 28.2219C66.1077 28.11 66.2345 28.0219 66.3754 27.9638C66.5162 27.9057 66.6678 27.8788 66.8199 27.885ZM67.2757 28.5428C67.2245 28.4681 67.1553 28.4078 67.0747 28.3676C66.994 28.3274 66.9045 28.3085 66.8146 28.3128C66.7247 28.3085 66.6352 28.3274 66.5545 28.3676C66.4738 28.4078 66.4046 28.4681 66.3534 28.5428C66.2457 28.7266 66.1889 28.9362 66.1889 29.1497C66.1889 29.3633 66.2457 29.5729 66.3534 29.7567C66.4041 29.8306 66.4725 29.8904 66.5522 29.9306C66.6318 29.9708 66.7203 29.99 66.8093 29.9866C66.8992 29.991 66.9887 29.9721 67.0694 29.9319C67.15 29.8917 67.2192 29.8314 67.2704 29.7567C67.3848 29.5748 67.4421 29.3623 67.4347 29.1471C67.4479 28.9336 67.3921 28.7216 67.2757 28.5428Z" fill="white"/>
<path d="M68.5109 26.9653C68.542 26.9336 68.5792 26.9088 68.6202 26.8922C68.6613 26.8757 68.7052 26.8678 68.7494 26.869C68.8376 26.8669 68.9231 26.8995 68.9879 26.9599C69.0193 26.9913 69.0439 27.0289 69.0603 27.0703C69.0767 27.1117 69.0846 27.156 69.0833 27.2006C69.0837 27.2439 69.0749 27.2869 69.0576 27.3265C69.0402 27.3662 69.0146 27.4016 68.9826 27.4305C68.9526 27.4625 68.9164 27.4879 68.8763 27.5054C68.8362 27.5229 68.793 27.532 68.7494 27.5321C68.7047 27.5337 68.6602 27.5254 68.619 27.5079C68.5778 27.4903 68.5409 27.4639 68.5109 27.4305C68.4794 27.4012 68.4542 27.3657 68.4368 27.3261C68.4195 27.2866 68.4104 27.2438 68.4102 27.2006C68.4103 27.1565 68.4193 27.113 68.4366 27.0725C68.454 27.0321 68.4792 26.9956 68.5109 26.9653ZM69.0144 30.3557H68.4844V27.9492H69.0144V30.3557Z" fill="white"/>
<path d="M48.2414 20.6229H44.8967C44.903 20.7831 44.9448 20.9397 45.0191 21.0813C45.0934 21.2229 45.1983 21.3459 45.3261 21.4411C45.5997 21.6469 45.9337 21.7542 46.2749 21.7459C46.7606 21.7433 47.238 21.6183 47.6636 21.3823L48.0028 22.3342C47.4223 22.729 46.7364 22.9361 46.0363 22.9278C45.6716 22.9536 45.3058 22.8969 44.9655 22.7619C44.6253 22.6268 44.3193 22.4167 44.0698 22.147C43.6255 21.6135 43.3899 20.9345 43.4073 20.2379C43.3888 19.5267 43.6197 18.8317 44.0592 18.2753C44.275 18.0128 44.548 17.8043 44.857 17.6661C45.166 17.5278 45.5025 17.4636 45.8402 17.4786C46.1657 17.4671 46.4898 17.5272 46.79 17.6546C47.0902 17.782 47.3593 17.9738 47.5788 18.2165C48.0396 18.7574 48.2768 19.4561 48.2414 20.1684V20.6229ZM46.736 19.5962C46.7204 19.3335 46.6262 19.0818 46.4657 18.8743C46.386 18.7727 46.2832 18.692 46.166 18.6389C46.0488 18.5859 45.9207 18.5621 45.7925 18.5695C45.6633 18.5665 45.5352 18.594 45.4184 18.6497C45.3015 18.7054 45.1992 18.7878 45.1194 18.8903C44.9556 19.0885 44.8656 19.3382 44.8649 19.5962H46.736Z" fill="#23333C"/>
<path d="M57.1675 22.8155H55.694V19.7407C55.709 19.4864 55.6598 19.2325 55.5508 19.0027C55.4865 18.9099 55.398 18.8368 55.2951 18.7915C55.1923 18.7462 55.079 18.7305 54.9678 18.746C54.558 18.7548 54.1642 18.908 53.8547 19.1792V22.8155H52.3758V19.762C52.3883 19.5051 52.3411 19.2487 52.238 19.0134C52.1771 18.919 52.0911 18.8439 51.9899 18.7966C51.8886 18.7493 51.7762 18.7318 51.6656 18.746C51.2534 18.7588 50.8575 18.9114 50.5418 19.1792V22.8155H49.063V17.5963H50.3086L50.4517 18.131C50.9365 17.7172 51.5451 17.4799 52.1797 17.4572C52.4568 17.4328 52.7348 17.4907 52.9797 17.6237C53.2246 17.7567 53.4255 17.9591 53.5578 18.2059C54.0649 17.7464 54.716 17.4813 55.3971 17.4572C55.8596 17.4384 56.3127 17.5927 56.6692 17.8904C56.8504 18.0785 56.9888 18.3041 57.0748 18.5516C57.1609 18.7991 57.1925 19.0625 57.1675 19.3235V22.8155Z" fill="#23333C"/>
<path d="M63.173 20.115C63.1841 20.4883 63.1192 20.86 62.9823 21.207C62.8455 21.5541 62.6395 21.8691 62.3773 22.1327C62.115 22.3963 61.8019 22.6029 61.4574 22.7396C61.1129 22.8764 60.7443 22.9404 60.3743 22.9279C60.1401 22.9291 59.9072 22.8911 59.6852 22.8156V25.4198H58.1958V17.8316C58.8781 17.5955 59.5947 17.4762 60.316 17.4787C61.0862 17.4246 61.8469 17.6759 62.4362 18.1792C62.6863 18.432 62.881 18.7349 63.0079 19.0683C63.1348 19.4018 63.1911 19.7583 63.173 20.115ZM61.6305 20.2006C61.6513 20.0025 61.6287 19.8022 61.5642 19.6139C61.4997 19.4257 61.395 19.254 61.2574 19.1111C61.1198 18.9683 60.9528 18.8577 60.7681 18.7872C60.5834 18.7167 60.3857 18.688 60.1888 18.7033C60.0111 18.6982 59.8334 18.7126 59.6587 18.746V21.6498C59.8553 21.7168 60.0609 21.7529 60.2683 21.7567C60.4547 21.7688 60.6413 21.7368 60.8133 21.6635C60.9854 21.5902 61.1381 21.4775 61.2595 21.3343C61.5088 21.0148 61.64 20.6177 61.6305 20.2113V20.2006Z" fill="#23333C"/>
<path d="M66.4331 22.6391C66.0872 22.8305 65.6987 22.9299 65.3041 22.9278C65.1294 22.9423 64.9536 22.9204 64.7876 22.8633C64.6216 22.8063 64.4691 22.7154 64.3394 22.5963C64.2317 22.4776 64.1486 22.3385 64.0949 22.1869C64.0411 22.0354 64.018 21.8746 64.0267 21.7139V15.0081H65.5108V21.0615C65.5004 21.1989 65.5241 21.3368 65.5798 21.4626C65.6057 21.5042 65.643 21.5375 65.6872 21.5583C65.7314 21.5792 65.7805 21.5868 65.8289 21.5802C65.9683 21.5783 66.107 21.5603 66.2423 21.5268L66.4331 22.6391Z" fill="#23333C"/>
<path d="M72.1949 20.1792C72.2111 20.54 72.1546 20.9005 72.0289 21.2387C71.9031 21.5769 71.7108 21.8859 71.4634 22.1471C70.9542 22.6257 70.2905 22.9023 69.5949 22.9259C68.8994 22.9494 68.2188 22.7184 67.6788 22.2754C67.4006 22.0204 67.1817 21.7064 67.0378 21.3561C66.894 21.0057 66.8287 20.6275 66.8467 20.2487C66.8353 19.8808 66.8969 19.5144 67.028 19.1709C67.1591 18.8274 67.3569 18.5139 67.6099 18.2487C67.857 17.9945 68.1537 17.7947 68.4813 17.6622C68.8088 17.5296 69.1601 17.4671 69.5128 17.4786C69.8809 17.4586 70.249 17.5179 70.5927 17.6525C70.9363 17.7872 71.2476 17.994 71.5058 18.2594C71.9782 18.7822 72.226 19.4725 72.1949 20.1792ZM70.6737 20.2113C70.6945 19.8067 70.5827 19.4064 70.3556 19.0722C70.2569 18.9359 70.1264 18.826 69.9758 18.7524C69.8252 18.6787 69.6589 18.6435 69.4916 18.6498C69.3256 18.6409 69.1602 18.6756 69.0115 18.7506C68.8629 18.8256 68.7361 18.9383 68.6435 19.0776C68.4383 19.4182 68.3386 19.813 68.3573 20.2113C68.3349 20.6186 68.4447 21.0222 68.67 21.361C68.765 21.4995 68.8928 21.6118 69.0419 21.6875C69.191 21.7632 69.3566 21.7998 69.5234 21.7942C69.6921 21.8033 69.8602 21.7676 70.0108 21.6906C70.1615 21.6137 70.2896 21.4982 70.3821 21.3557C70.5922 21.0129 70.6939 20.6137 70.6737 20.2113Z" fill="#23333C"/>
<path d="M74.8395 16.008C74.8417 16.1235 74.8202 16.2382 74.7765 16.3449C74.7327 16.4516 74.6675 16.5481 74.5851 16.6283C74.411 16.7899 74.183 16.8796 73.9464 16.8796C73.7098 16.8796 73.4818 16.7899 73.3077 16.6283C73.2258 16.548 73.1607 16.452 73.1162 16.3459C73.0717 16.2398 73.0488 16.1258 73.0488 16.0106C73.0488 15.8955 73.0717 15.7814 73.1162 15.6754C73.1607 15.5693 73.2258 15.4732 73.3077 15.393C73.3913 15.3095 73.4907 15.2437 73.5999 15.1996C73.7092 15.1556 73.8261 15.134 73.9437 15.1363C74.1821 15.1312 74.4127 15.2216 74.5851 15.3877C74.6681 15.4674 74.7335 15.5638 74.7774 15.6707C74.8212 15.7775 74.8424 15.8924 74.8395 16.008ZM74.6858 22.8155H73.2017V17.5962H74.6858V22.8155Z" fill="#23333C"/>
<path d="M36.5963 18.5C36.5963 22.0603 35.5498 25.5406 33.5891 28.5008C31.6284 31.461 28.8416 33.7681 25.5812 35.1303C22.3207 36.4926 18.7331 36.8487 15.272 36.1537C11.8109 35.4588 8.63189 33.7439 6.1369 31.226C3.64192 28.7081 1.94309 25.5004 1.25527 22.0083C0.567446 18.5163 0.921525 14.897 2.27273 11.608C3.62393 8.31901 5.91156 5.50817 8.84629 3.53095C11.781 1.55372 15.231 0.498943 18.76 0.500001C23.491 0.501419 28.0277 2.39847 31.3725 5.77397C34.7173 9.14947 36.5963 13.727 36.5963 18.5Z" fill="#24343C"/>
<path d="M37.3119 9.28613H16.5762V27.8637H37.3119V9.28613Z" fill="white"/>
<path d="M33.3153 7.07751H30.4849V11.7513H33.3153V7.07751Z" fill="white"/>
<path d="M23.0641 7.02405H20.2336V11.7032H23.0641V7.02405Z" fill="white"/>
<path d="M38.2077 27.6016H29.7268V28.639H38.2077V27.6016Z" fill="white"/>
<path d="M38.5681 26.9759C38.0975 26.4368 37.8392 25.7424 37.842 25.024V23.7834C37.8695 22.9236 37.6285 22.0768 37.1529 21.3628C36.6773 20.6489 35.9912 20.1038 35.1917 19.8048C35.0746 19.4818 34.8353 19.2187 34.5263 19.0734C34.2173 18.928 33.8638 18.9122 33.5432 19.0294C33.3649 19.092 33.2029 19.1942 33.0689 19.3284C32.935 19.4626 32.8326 19.6254 32.7693 19.8048C32.21 19.9914 31.6993 20.302 31.2746 20.7139C30.9077 21.0705 30.6162 21.4983 30.4176 21.9716C30.219 22.445 30.1175 22.9539 30.1191 23.4679V25.024C30.1197 25.7558 29.8494 26.4615 29.3611 27.0027C29.1545 27.2292 29.0193 27.5127 28.9729 27.817C28.9266 28.1213 28.971 28.4327 29.1006 28.7114C29.2302 28.9901 29.4391 29.2236 29.7008 29.3822C29.9624 29.5407 30.2648 29.6171 30.5696 29.6016H31.5873C31.6887 30.1545 31.9787 30.6542 32.4072 31.0139C32.8357 31.3736 33.3754 31.5705 33.9328 31.5705C34.4902 31.5705 35.03 31.3736 35.4584 31.0139C35.8869 30.6542 36.177 30.1545 36.2783 29.6016H37.3119C37.6843 29.6013 38.0454 29.4721 38.3348 29.2356C38.6242 28.9991 38.8244 28.6696 38.9021 28.3021C38.9549 28.0702 38.9521 27.8289 38.894 27.5983C38.836 27.3676 38.7242 27.1543 38.5681 26.9759ZM33.9832 30.6925C33.6556 30.6876 33.3383 30.5763 33.0786 30.3749C32.8188 30.1735 32.6304 29.8929 32.5414 29.5748H35.5044C35.4017 29.9002 35.1989 30.1841 34.9253 30.3851C34.6517 30.5861 34.3216 30.6938 33.9832 30.6925ZM38.1282 28.1203C38.0798 28.2896 37.9792 28.4389 37.841 28.5466C37.7028 28.6543 37.5342 28.7148 37.3596 28.7192H30.612C30.4336 28.7283 30.2577 28.6731 30.1159 28.5633C29.9741 28.4536 29.8757 28.2966 29.8381 28.1203C29.8225 28.0132 29.8305 27.904 29.8617 27.8004C29.8928 27.6969 29.9463 27.6016 30.0184 27.5214C30.6278 26.8168 30.9598 25.911 30.9513 24.9759V23.4198C30.9505 23.0217 31.0281 22.6274 31.1794 22.2598C31.3307 21.8921 31.5528 21.5584 31.8328 21.2779C32.1128 20.9974 32.4451 20.7757 32.8106 20.6257C33.1761 20.4756 33.5674 20.4002 33.962 20.4037H34.068C35.7376 20.4572 36.978 21.885 36.978 23.7567V24.9759C36.9758 25.9128 37.3133 26.8181 37.9268 27.5214C38.0025 27.5997 38.06 27.6941 38.0948 27.7978C38.1297 27.9014 38.1411 28.0116 38.1282 28.1203Z" fill="#E94B4F" stroke="#E94B4F" stroke-miterlimit="10"/>
<path d="M26.9016 27.3396H17.578C17.2993 27.3316 17.0343 27.2163 16.8372 27.0174C16.6401 26.8186 16.5259 26.5512 16.5179 26.2701V14.3289H31.9C32.0009 14.3174 32.0941 14.2687 32.1617 14.1923C32.2293 14.1158 32.2667 14.017 32.2667 13.9145C32.2667 13.812 32.2293 13.7132 32.1617 13.6367C32.0941 13.5603 32.0009 13.5116 31.9 13.5001H16.5285V10.4038C16.5365 10.1227 16.6507 9.85533 16.8478 9.65648C17.0449 9.45763 17.3099 9.34236 17.5886 9.33428H19.8307V10.1632C19.83 10.3853 19.8728 10.6053 19.9568 10.8107C20.0407 11.016 20.164 11.2026 20.3197 11.3596C20.4754 11.5167 20.6603 11.6411 20.8639 11.7258C21.0674 11.8105 21.2855 11.8537 21.5057 11.853H21.9403C22.1605 11.8537 22.3786 11.8105 22.5821 11.7258C22.7857 11.6411 22.9706 11.5167 23.1263 11.3596C23.2819 11.2026 23.4053 11.016 23.4892 10.8107C23.5731 10.6053 23.616 10.3853 23.6153 10.1632V9.5161H30.2515V10.1418C30.2508 10.3639 30.2937 10.5839 30.3776 10.7893C30.4616 10.9946 30.5849 11.1812 30.7406 11.3382C30.8963 11.4953 31.0812 11.6197 31.2847 11.7044C31.4882 11.7891 31.7064 11.8323 31.9265 11.8316H32.3347C32.5548 11.8323 32.7729 11.7891 32.9765 11.7044C33.18 11.6197 33.3649 11.4953 33.5206 11.3382C33.6763 11.1812 33.7996 10.9946 33.8836 10.7893C33.9675 10.5839 34.0103 10.3639 34.0096 10.1418V9.28615H36.2518C36.5329 9.28615 36.8026 9.39884 37.0014 9.59941C37.2002 9.79998 37.3119 10.072 37.3119 10.3557V13.4466H34.8365C34.7787 13.4399 34.72 13.4457 34.6645 13.4635C34.609 13.4813 34.5579 13.5107 34.5144 13.5499C34.471 13.589 34.4362 13.6369 34.4124 13.6906C34.3886 13.7442 34.3763 13.8023 34.3763 13.861C34.3763 13.9198 34.3886 13.9779 34.4124 14.0315C34.4362 14.0851 34.471 14.1331 34.5144 14.1722C34.5579 14.2113 34.609 14.2407 34.6645 14.2585C34.72 14.2763 34.7787 14.2821 34.8365 14.2755H37.3119V17.9653C37.3053 18.0237 37.311 18.0828 37.3286 18.1388C37.3463 18.1948 37.3754 18.2464 37.4142 18.2902C37.453 18.3341 37.5005 18.3691 37.5537 18.3931C37.6068 18.4171 37.6644 18.4296 37.7227 18.4296C37.7809 18.4296 37.8385 18.4171 37.8916 18.3931C37.9448 18.3691 37.9923 18.3341 38.0311 18.2902C38.0699 18.2464 38.099 18.1948 38.1167 18.1388C38.1343 18.0828 38.14 18.0237 38.1334 17.9653V10.3771C38.1363 9.86974 37.9399 9.38191 37.5874 9.02018C37.2348 8.65845 36.7546 8.45223 36.2518 8.44658H34.0096V8.03482C34.0103 7.81271 33.9675 7.59265 33.8836 7.38731C33.7996 7.18197 33.6763 6.9954 33.5206 6.83835C33.3649 6.68129 33.18 6.55684 32.9765 6.47217C32.7729 6.3875 32.5548 6.34427 32.3347 6.34498H31.9C31.6799 6.34427 31.4617 6.3875 31.2582 6.47217C31.0547 6.55684 30.8697 6.68129 30.7141 6.83835C30.5584 6.9954 30.435 7.18197 30.3511 7.38731C30.2672 7.59265 30.2243 7.81271 30.225 8.03482V8.66049H23.5782V8.04017C23.5789 7.81851 23.5362 7.59889 23.4526 7.3939C23.369 7.18891 23.2461 7.00258 23.091 6.84559C22.9359 6.68861 22.7516 6.56405 22.5487 6.47906C22.3458 6.39407 22.1282 6.35033 21.9085 6.35033H21.4951C21.2749 6.34962 21.0568 6.39285 20.8533 6.47752C20.6497 6.56219 20.4648 6.68664 20.3091 6.84369C20.1534 7.00075 20.0301 7.18732 19.9462 7.39266C19.8622 7.598 19.8194 7.81806 19.8201 8.04017V8.44658H17.578C17.3276 8.44658 17.0798 8.49642 16.8485 8.59323C16.6173 8.69004 16.4073 8.83193 16.2305 9.01076C16.0538 9.1896 15.9137 9.40187 15.8184 9.6354C15.7231 9.86894 15.6744 10.1192 15.6751 10.3717V26.222C15.6737 26.4747 15.7219 26.7253 15.817 26.9591C15.912 27.193 16.0521 27.4055 16.229 27.5845C16.4059 27.7635 16.6162 27.9053 16.8477 28.0019C17.0792 28.0985 17.3274 28.1478 17.578 28.1471H26.9016C26.9561 28.1478 27.0102 28.1375 27.0607 28.1168C27.1112 28.0961 27.157 28.0654 27.1955 28.0265C27.2341 27.9877 27.2645 27.9414 27.285 27.8905C27.3056 27.8395 27.3158 27.785 27.3151 27.73C27.3109 27.6231 27.2652 27.5222 27.1878 27.4492C27.1104 27.3761 27.0076 27.3367 26.9016 27.3396ZM31.0731 8.04017C31.0717 7.93022 31.0921 7.82109 31.1332 7.71923C31.1742 7.61737 31.2351 7.52483 31.3121 7.44708C31.3892 7.36932 31.4809 7.30793 31.5819 7.26652C31.6829 7.2251 31.791 7.2045 31.9 7.20594H32.3082C32.4171 7.2045 32.5253 7.2251 32.6263 7.26652C32.7272 7.30793 32.819 7.36932 32.896 7.44708C32.9731 7.52483 33.034 7.61737 33.075 7.71923C33.1161 7.82109 33.1365 7.93022 33.135 8.04017V10.1418C33.1365 10.2517 33.1161 10.3608 33.075 10.4627C33.034 10.5646 32.9731 10.6571 32.896 10.7349C32.819 10.8126 32.7272 10.874 32.6263 10.9154C32.5253 10.9568 32.4171 10.9774 32.3082 10.976H31.9C31.791 10.9774 31.6829 10.9568 31.5819 10.9154C31.4809 10.874 31.3892 10.8126 31.3121 10.7349C31.2351 10.6571 31.1742 10.5646 31.1332 10.4627C31.0921 10.3608 31.0717 10.2517 31.0731 10.1418V8.04017ZM20.6682 8.04017C20.6668 7.93022 20.6872 7.82109 20.7282 7.71923C20.7693 7.61737 20.8301 7.52483 20.9072 7.44708C20.9843 7.36932 21.076 7.30793 21.177 7.26652C21.2779 7.2251 21.3861 7.2045 21.4951 7.20594H21.9085C22.0172 7.20449 22.1252 7.22511 22.2258 7.26659C22.3265 7.30806 22.4179 7.36954 22.4946 7.44737C22.5712 7.5252 22.6316 7.61779 22.672 7.71963C22.7125 7.82147 22.7322 7.93047 22.7301 8.04017V10.1418C22.7315 10.2513 22.7113 10.3599 22.6705 10.4615C22.6298 10.563 22.5694 10.6553 22.4929 10.7329C22.4164 10.8106 22.3253 10.8721 22.225 10.9139C22.1246 10.9556 22.017 10.9767 21.9085 10.976H21.4951C21.3861 10.9774 21.2779 10.9568 21.177 10.9154C21.076 10.874 20.9843 10.8126 20.9072 10.7349C20.8301 10.6571 20.7693 10.5646 20.7282 10.4627C20.6872 10.3608 20.6668 10.2517 20.6682 10.1418V8.04017Z" fill="#E94B4F" stroke="#E94B4F" stroke-miterlimit="10"/>
</svg>
