<?xml version="1.0" encoding="UTF-8" standalone="no"?>
<svg
   viewBox="0 0 89.86489 81.075736"
   version="1.1"
   id="svg167"
   sodipodi:docname="mdph.svg"
   width="89.864891"
   height="81.075737"
   inkscape:version="1.1.2 (b8e25be8, 2022-02-05)"
   xmlns:inkscape="http://www.inkscape.org/namespaces/inkscape"
   xmlns:sodipodi="http://sodipodi.sourceforge.net/DTD/sodipodi-0.dtd"
   xmlns="http://www.w3.org/2000/svg"
   xmlns:svg="http://www.w3.org/2000/svg"
   xmlns:rdf="http://www.w3.org/1999/02/22-rdf-syntax-ns#"
   xmlns:cc="http://creativecommons.org/ns#"
   xmlns:dc="http://purl.org/dc/elements/1.1/">
  <sodipodi:namedview
     id="namedview169"
     pagecolor="#ffffff"
     bordercolor="#666666"
     borderopacity="1.0"
     inkscape:pageshadow="2"
     inkscape:pageopacity="0.0"
     inkscape:pagecheckerboard="0"
     showgrid="false"
     fit-margin-top="0"
     fit-margin-left="0"
     fit-margin-right="0"
     fit-margin-bottom="0"
     inkscape:zoom="3.0499133"
     inkscape:cx="268.04041"
     inkscape:cy="112.29827"
     inkscape:window-width="3440"
     inkscape:window-height="1387"
     inkscape:window-x="0"
     inkscape:window-y="25"
     inkscape:window-maximized="1"
     inkscape:current-layer="Calque_3" />
  <defs
     id="defs11">
    <style
       id="style9">.cls-1{fill:#afca00;}.cls-2{fill:#004461;}.cls-3{fill:#fff;}</style>
  </defs>
  <title
     id="title13">logo-cd44-handicap</title>
  <g
     id="Calque_2"
     data-name="Calque 2"
     transform="translate(0.01,0.0057408)">
    <g
       id="Calque_3"
       data-name="Calque 3">
      <path
         class="cls-1"
         d="M 80.31,40.91 A 40.16,40.16 0 1 1 40.16,0.75 40.16,40.16 0 0 1 80.31,40.91 Z"
         id="path15" />
      <path
         class="cls-2"
         d="m 89.64,29.52 a 2,2 0 0 0 -1.45,-0.95 1,1 0 0 0 -0.3,0 c -1,0 -4.45,1.31 -10.56,3.63 C 73.9,33.47 70,35 66.81,36.05 l -0.77,0.27 c -5.16,1.79 -10,3.48 -16.45,3.51 h -0.12 c -3.89,0 -6.53,-1.17 -7.86,-3.46 l 1,-0.47 c 2.89,-1.33 7.05,-5.11 7.26,-9.34 a 3.88,3.88 0 0 0 -2.38,-4 2.76,2.76 0 0 0 -1,-0.16 6.84,6.84 0 0 0 -3.75,1.43 13.14,13.14 0 0 0 -4.68,10.45 v 0.21 a 13.6,13.6 0 0 1 -3.05,0.31 17,17 0 0 1 -2.18,-0.13 17.26,17.26 0 0 1 -11.78,-6 52.57,52.57 0 0 1 -7,-9.55 L 13,17.37 A 51.58,51.58 0 0 1 8.57,8.46 L 8,7 A 61.12,61.12 0 0 1 6,1.22 1.71,1.71 0 0 0 4.22,0 2.44,2.44 0 0 0 2.38,0.88 2.77,2.77 0 0 0 1.85,3.19 56.9,56.9 0 0 0 5,13.76 c 0.4,1.08 0.84,2.28 1.32,3.65 0.94,2.65 2.19,5.86 3.51,9.25 1.94,5 4.14,10.62 5.9,15.9 a 106.87,106.87 0 0 1 4.69,19 43.3,43.3 0 0 0 1.08,4.69 c 0,0.36 0,0.71 0,1.08 a 13,13 0 0 1 0,2.16 2.85,2.85 0 0 0 1.15,2 2.27,2.27 0 0 0 1.69,0.24 h 0.34 A 1.93,1.93 0 0 0 25.9,70.66 4.43,4.43 0 0 0 24.76,66.87 C 23.81,63.66 23,60 22.05,55.4 A 125.23,125.23 0 0 0 16.27,36.48 L 15.73,35 C 13.49,28.87 11.57,24.07 9.88,19.83 8.88,17.37 7.98,15.05 7.16,12.9 A 77.48,77.48 0 0 1 4.75,5.36 75.41,75.41 0 0 0 12.87,21.92 c 3.38,5.12 6.18,9 11.58,12.4 2.93,1.84 8,2.92 12.73,2.7 h 0.1 c 0.14,0 0.41,0 0.7,0 a 4.87,4.87 0 0 1 0.73,0.06 c 0.13,0.21 0.25,0.42 0.36,0.61 a 10.11,10.11 0 0 0 1.41,2 8.68,8.68 0 0 0 2.17,1.52 17.23,17.23 0 0 0 7.62,1.53 25.28,25.28 0 0 0 3.59,-0.25 50.31,50.31 0 0 0 5.57,-1.2 l 1.84,-0.46 9.39,-3.36 c 2,-0.78 4.1,-1.61 6.08,-2.41 3.25,-1.32 6.6,-2.68 10.05,-3.83 a 0.7,0.7 0 0 1 -0.19,0.16 92.76,92.76 0 0 1 -14.53,6.89 c -1.94,0.79 -3.95,1.61 -5.89,2.45 L 64.43,41.5 A 68.17,68.17 0 0 1 55.08,45 H 55 c -2.43,0.44 -3.86,0.87 -4,1.78 l -0.15,1 C 49.33,57.64 47.93,67 47.75,77.69 v 0.28 l 0.16,0.17 a 1.05,1.05 0 0 0 0.75,0.24 c 0.32,0 1.6,-0.13 2,-0.73 a 1.73,1.73 0 0 0 0.2,-1.09 c 0,-0.13 0,-0.26 0,-0.41 0.32,-8.79 0.73,-17.36 2.31,-25.59 0.1,-0.5 0.15,-0.9 0.19,-1.23 a 3.39,3.39 0 0 1 0.21,-1 c 13.49,-4.6 19,-7.15 31.29,-12.94 3.32,-1.58 4,-2 4.66,-3.48 a 2.77,2.77 0 0 0 0.12,-2.39 z m -48.81,4.31 a 6.83,6.83 0 0 1 0.05,-1.16 10.81,10.81 0 0 1 1.44,-4 c 1.53,-2.52 3,-3.17 3.53,-3.32 a 1.65,1.65 0 0 1 0.52,-0.08 1,1 0 0 1 0.79,0.3 1.89,1.89 0 0 1 0.37,1.43 c -0.08,1.61 -3.88,6.31 -6.7,6.83 z"
         id="path17" />
    </g>
  </g>
  <metadata
     id="metadata939">
    <rdf:RDF>
      <cc:Work
         rdf:about="">
        <dc:title>logo-cd44-handicap</dc:title>
      </cc:Work>
    </rdf:RDF>
  </metadata>
</svg>
