<svg width="24" height="24" viewBox="0 0 24 24" fill="none" xmlns="http://www.w3.org/2000/svg">
<g clip-path="url(#clip0_464_5700)">
<path d="M12 1.68C14.0411 1.68 16.0364 2.28526 17.7335 3.41924C19.4306 4.55321 20.7534 6.16498 21.5345 8.05071C22.3156 9.93645 22.5199 12.0115 22.1217 14.0133C21.7235 16.0152 20.7406 17.8541 19.2974 19.2974C17.8541 20.7406 16.0152 21.7235 14.0133 22.1217C12.0115 22.5199 9.93645 22.3155 8.05072 21.5345C6.16498 20.7534 4.55322 19.4306 3.41924 17.7335C2.28526 16.0364 1.68001 14.0411 1.68001 12C1.68001 9.26297 2.76729 6.63804 4.70267 4.70266C6.63804 2.76728 9.26298 1.68 12 1.68V1.68ZM12 0C9.62664 0 7.30656 0.703788 5.33317 2.02237C3.35978 3.34094 1.8217 5.21509 0.913452 7.4078C0.0051994 9.60052 -0.232441 12.0133 0.230582 14.3411C0.693605 16.6689 1.8365 18.8071 3.51473 20.4853C5.19296 22.1635 7.33115 23.3064 9.65893 23.7694C11.9867 24.2325 14.3995 23.9948 16.5922 23.0866C18.7849 22.1783 20.6591 20.6402 21.9777 18.6669C23.2962 16.6935 24 14.3734 24 12C24 8.81741 22.7357 5.76516 20.4853 3.51472C18.2349 1.26428 15.1826 0 12 0V0Z" fill="#1914F7"/>
<path d="M12.1892 6C12.6162 6.0446 13.0401 6.11432 13.4588 6.2088C14.738 6.5712 15.4988 7.5936 15.5948 8.95201C15.6411 9.38727 15.5721 9.82706 15.3948 10.2272C15.2175 10.6274 14.938 10.9739 14.5844 11.232C14.2436 11.496 13.886 11.736 13.5428 11.9952C13.2942 12.1581 13.0927 12.3836 12.9588 12.649C12.8248 12.9144 12.763 13.2104 12.7796 13.5072C12.7882 13.7214 12.7247 13.9323 12.5995 14.1063C12.4742 14.2803 12.2943 14.4074 12.0884 14.4672C11.8693 14.5516 11.6283 14.5608 11.4033 14.4935C11.1783 14.4262 10.9821 14.2861 10.8452 14.0952C10.7556 13.9448 10.7068 13.7735 10.7036 13.5984C10.6866 13.0558 10.8023 12.5173 11.0407 12.0296C11.2791 11.5419 11.633 11.1198 12.0716 10.8C12.4569 10.5068 12.8202 10.186 13.1588 9.84001C13.3203 9.64985 13.4184 9.41413 13.4396 9.16561C13.4948 8.48641 13.058 8.0496 12.3548 8.004C11.5052 7.9488 10.79 8.1696 10.2908 8.92081C10.1867 9.09787 10.0308 9.23879 9.84415 9.32461C9.6575 9.41042 9.44905 9.43701 9.24684 9.40081C8.52684 9.28081 8.21724 8.69521 8.51244 8.0208C8.82146 7.36354 9.35271 6.83654 10.0124 6.5328C10.6908 6.19941 11.4336 6.01761 12.1892 6V6Z" fill="#1914F7"/>
<path d="M12.9075 16.7712C12.9123 17.5416 12.4803 18 11.7243 18C10.9683 18 10.4643 17.5584 10.4619 16.9128C10.4619 16.0176 10.8627 15.5712 11.6619 15.5472C12.3123 15.528 12.9891 15.9264 12.9075 16.7712Z" fill="#1914F7"/>
</g>
<defs>
<clipPath id="clip0_464_5700">
<rect width="24" height="24" fill="white"/>
</clipPath>
</defs>
</svg>