<svg xmlns="http://www.w3.org/2000/svg" width="200" height="193" fill="none"><g clip-path="url(#a)"><path fill="#007CBF" d="M148.674 147.927c-.994-.739-2.014-1.364-2.879-2.157-3.36-3.081-6.249-6.595-8.411-10.583-1.898-3.502-3.578-7.126-4.822-10.96-1.648-5.07-3.65-10.021-5.465-15.038a210.663 210.663 0 0 1-2.668-7.812 21.19 21.19 0 0 1-.805-3.65c-.275-2.109.846-3.665 2.39-4.859 2.39-1.847 4.922-3.508 7.331-5.336 2.908-2.207 5.747-4.502 8.617-6.757 1.282-1.007 2.576-1.998 3.868-2.996 3.634-2.81 7.287-5.598 10.896-8.443 1.825-1.44 4.06-1.942 6.109-2.858 3.578-1.6 7.37-2.52 11.184-3.334 1.099-.233 2.264-.202 3.4-.22.581-.01 1.159.154 1.257.893.085.66-.256 1.042-.821 1.342-2.715 1.452-4.963 3.485-6.861 5.87-2.794 3.514-5.077 7.33-6.435 11.65-.754 2.4-1.657 4.755-2.311 7.18-.505 1.87-.717 3.814-1.073 5.725-.105.549-.256 1.089-.401 1.629-.082.303-.316.612-.278.893.278 2.131-.707 4.067-.916 6.126-.117 1.165-.578 2.317-.994 3.432-1.825 4.887-3.824 9.715-5.494 14.653-1.036 3.06-2.037 6.145-2.709 9.346-.49 2.33-.667 4.61-.619 6.937.022 1.045.268 2.115.578 3.123.704 2.286.189 4.682-1.668 6.207v-.003Z"/><path fill="#707173" d="M129.002 167.383c-.379 0-.761-.025-1.14.003-1.443.12-2.46-.426-3.4-1.582-3.767-4.632-8.554-7.95-14.007-10.315-2.355-1.023-4.73-2.046-7.177-2.801-2.276-.701-4.594-1.367-7.037-1.401-1.049-.016-2.09-.348-3.139-.502-.625-.092-1.257-.165-1.885-.165-5.832-.012-11.663-.025-17.492.01-.868.006-1.736.252-2.605.385-.559.088-1.114.23-1.676.253-2.463.094-4.891.249-7.35.682-2.9.511-5.675 1.294-8.333 2.447-1.49.647-2.614.05-3.726-.594-.767-.445-.634-1.38-.183-2.03a13.425 13.425 0 0 1 1.992-2.274c5.614-5.077 11.863-9.336 17.947-13.807 1.93-1.418 3.767-2.955 5.68-4.392 2.766-2.077 5.576-4.092 8.342-6.173 1.812-1.36 3.587-2.772 5.355-4.189 1.276-1.023 2.665-1.75 4.335-1.466.91.155 1.873.398 2.643.875 1.815 1.124 3.527 2.419 5.289 3.631 3.47 2.387 6.94 4.777 10.425 7.145 3.489 2.372 6.934 4.822 10.514 7.045 4.677 2.901 7.85 7.17 11.001 11.486 1.522 2.087 3.012 4.196 4.518 6.293 1.693 2.355 2.283 4.787 1.045 7.625-.644 1.471-1.711 2.198-3.037 2.554-2.248.607-4.556.989-6.842 1.465l-.054-.214-.003.006Z"/><path fill="#13235B" d="M38.801 149.774c-.177-1.174-.085-2.156.401-3.202.518-1.111.799-2.364.998-3.586.644-3.988 1.367-8.004.776-12.046-.811-5.557-2.655-10.789-5.765-15.506-1.727-2.621-3.053-5.405-4.095-8.361-1.604-4.543-3.186-9.102-5.017-13.558-1.472-3.583-3.091-7.142-5.036-10.482-1.487-2.551-3.325-4.951-6.24-6.29-1.288-.593-2.008-2.02-2.506-3.388-.389-1.073.59-2.743 1.837-2.863 2.378-.23 4.768-.484 7.114.448 1.323.524 2.769.73 4.133 1.159 2.611.824 5.083 1.923 7.332 3.536 3.804 2.728 7.596 5.488 11.52 8.036 4.34 2.816 8.832 5.39 13.23 8.114 1.004.625 1.939 1.39 2.814 2.191 1.108 1.014 1.664 2.264 1.68 3.85.025 2.645-.749 5.114-1.384 7.621a105.17 105.17 0 0 1-1.32 4.686c-.684 2.267-1.423 4.518-2.105 6.785a363.99 363.99 0 0 0-1.838 6.35c-.578 2.052-1.108 4.117-1.686 6.169-.524 1.866-1.21 3.698-1.585 5.589-.518 2.602-2.254 4.433-3.748 6.406-1.923 2.545-4.004 4.973-5.993 7.471-.871 1.095-1.143 1.196-3.517.868v.003Z"/><path fill="#F29400" d="M86.294 1.543c.155.89.322 1.418.322 1.945-.006 3.862.108 7.733-.139 11.581-.145 2.302-.85 4.572-1.345 6.846-.347 1.597-.758 3.183-1.159 4.768-.293 1.155-.476 2.37-.966 3.441-1.784 3.9-2.73 8.073-4.123 12.096-1.402 4.048-2.463 8.171-3.293 12.364-.373 1.889-1.22 3.575-2.42 5.062-.337.42-.883.694-1.373.97-2.222 1.23-4.556 2.074-7.148 2.074-10.713-.007-21.423-.007-32.136.015-1.566.004-3.094.035-4.657.584-1.235.433-2.687.354-4.076-.192-.957-.376-2.097-.325-3.158-.407-1.727-.133-3.107-1.137-3.672-2.896 1.67-.325 3.34-.568 4.964-.988 4.076-1.048 8.098-2.207 11.805-4.338a33.85 33.85 0 0 0 8.08-6.445c1.73-1.885 3.006-4.186 4.483-6.305.465-.663.875-1.37 1.396-1.983 2.106-2.46 4.692-4.389 7.246-6.34 3.502-2.677 6.956-5.424 10.559-7.963 2.87-2.02 5.257-4.53 7.653-7.022 1.459-1.515 2.64-3.252 3.211-5.447 1.147-4.404 4.133-7.517 7.862-9.977.607-.4 1.197-.827 2.084-1.446v.003Z"/><path fill="#FABC0F" d="M94.16.309c-.154.89-.321 1.417-.321 1.945.006 3.861-.108 7.732.139 11.581.145 2.302.85 4.572 1.345 6.845.347 1.598.758 3.183 1.159 4.768.293 1.156.476 2.371.966 3.442 1.784 3.9 2.731 8.073 4.123 12.096 1.402 4.047 2.463 8.171 3.294 12.364.372 1.888 1.218 3.574 2.418 5.061.338.42.884.695 1.374.97 2.222 1.231 4.556 2.074 7.148 2.074 10.713-.006 21.423-.006 32.136.016 1.566.003 3.094.035 4.657.584 1.235.433 2.687.354 4.076-.193.957-.375 2.097-.325 3.158-.407 1.727-.132 3.107-1.136 3.672-2.895-1.67-.325-3.341-.569-4.964-.988-4.076-1.049-8.098-2.208-11.805-4.339a33.832 33.832 0 0 1-8.08-6.444c-1.73-1.885-3.006-4.187-4.483-6.305-.465-.663-.875-1.37-1.396-1.983-2.106-2.46-4.692-4.389-7.246-6.34-3.502-2.678-6.956-5.425-10.559-7.963-2.87-2.021-5.257-4.531-7.653-7.022-1.459-1.516-2.64-3.252-3.211-5.447-1.146-4.404-4.133-7.518-7.862-9.977-.606-.401-1.197-.827-2.084-1.446v.003Z"/><path fill="#007CBF" d="M184.941 116.41c-5.946-.357-11.323-1.652-15.585-5.804-2.545-2.478-4.279-5.364-4.25-9.112.009-1.288.458-2.38 1.058-3.372 1.581-2.624 3.864-4.31 6.87-5.248 3.865-1.203 7.764-1.253 11.622-.593 4.689.802 8.769 2.876 11.815 6.776 1.402 1.793 2.466 3.662 2.735 5.885.432 3.571-1.472 6.129-3.997 8.31-3.016 2.605-6.783 2.773-10.272 3.155l.004.003Z"/><path fill="#13235B" d="M11.11 140.984c-.967-.044-1.98-.073-2.99-.139-3.537-.24-6.098-2.033-7.323-5.276-.83-2.198-.698-4.632.149-6.883 1.477-3.938 4.303-6.808 7.609-9.264 2.526-1.876 5.402-3.05 8.355-4.048.47-.158.997-.136 1.496-.218 1.118-.183 2.23-.394 3.35-.559.36-.053.739-.037 1.099.019.871.136 1.727.386 2.601.468 2.24.208 4.058 1.263 5.567 2.813 1.007 1.036 1.576 2.359 1.727 3.852.338 3.271-.631 6.151-2.428 8.838-2.958 4.423-7.054 7.375-11.944 9.304-.922.364-1.889.705-2.861.834-1.44.189-2.905.183-4.404.262l-.004-.003Z"/><path fill="#F29400" d="M41.76 36.597c.274 2.05-.13 3.896-1.68 5.37-.272.26-.537.547-.86.724-3.106 1.705-6.317 2.34-9.844 1.326-2.614-.752-5.263-1.355-7.61-2.788-2.528-1.544-4.94-3.233-6.633-5.747-.284-.42-.594-.82-.916-1.212-1.986-2.434-2.781-5.166-2.857-8.351-.108-4.525 3.46-7.06 7.025-7.5 5.046-.621 9.756.831 13.89 3.445 3.492 2.21 6.491 5.248 8.392 9.062.868 1.743 1.364 3.663 1.092 5.67Z"/><path fill="#FABC0F" d="M138.696 35.362c-.275 2.05.129 3.897 1.679 5.371.272.259.537.546.859.723 3.107 1.705 6.318 2.34 9.845 1.326 2.614-.751 5.263-1.354 7.609-2.788 2.53-1.544 4.942-3.233 6.634-5.746.284-.42.594-.821.916-1.213 1.986-2.434 2.782-5.165 2.857-8.351.108-4.525-3.46-7.06-7.025-7.499-5.045-.622-9.756.83-13.889 3.445-3.492 2.21-6.492 5.248-8.393 9.062-.868 1.742-1.364 3.662-1.092 5.67Z"/><path fill="#707173" d="M101.478 173.379c0 1.455.164 2.93-.031 4.357-.484 3.527-1.835 6.744-3.947 9.624-1.314 1.79-2.744 3.46-4.945 4.202-2.68.907-5.295.951-7.638-.903-1.982-1.569-3.267-3.558-3.997-6.033-.4-1.364-.562-2.694-.682-4.07-.066-.749-.259-1.484-.372-2.229-.067-.43-.165-.875-.117-1.295.16-1.43.35-2.857.58-4.281.57-3.524 1.69-6.833 3.986-9.634 1.436-1.752 2.838-3.596 5.092-4.37 2.643-.906 6.04-.789 8.052 1.541 1.528 1.772 2.592 3.758 3.388 6.002.836 2.369.552 4.724.631 7.089Z"/></g><defs><clipPath id="a"><path fill="#fff" d="M0 0h200v193H0z"/></clipPath></defs></svg>